<?xml version="1.0" standalone="no"?>
<!DOCTYPE svg PUBLIC "-//W3C//DTD SVG 20010904//EN"
 "http://www.w3.org/TR/2001/REC-SVG-20010904/DTD/svg10.dtd">
<svg version="1.0" xmlns="http://www.w3.org/2000/svg"
 width="1280.000000pt" height="570.000000pt" viewBox="0 0 1280.000000 570.000000"
 preserveAspectRatio="xMidYMid meet">
<metadata>
Created by potrace 1.15, written by Peter Selinger 2001-2017
</metadata>
<g transform="translate(0.000000,570.000000) scale(0.100000,-0.100000)"
fill="#000000" stroke="none">
<path d="M222 5665 l-22 -35 -100 0 -100 0 0 -45 0 -45 104 0 103 0 53 -80 53
-80 -57 -85 -56 -85 -100 0 -100 0 0 -45 0 -45 104 0 103 0 53 -80 53 -80 -57
-85 -56 -85 -100 0 -100 0 0 -45 0 -45 104 0 103 0 53 -80 52 -79 -54 -78 -53
-78 -103 -3 -102 -3 0 -44 0 -45 104 0 103 0 52 -78 c28 -43 51 -82 51 -88 -1
-5 -24 -43 -53 -84 l-52 -75 -103 -3 -102 -3 0 -44 0 -45 104 0 103 0 53 -80
53 -80 -57 -85 -56 -85 -100 0 -100 0 0 -45 0 -45 104 0 103 0 53 -80 53 -80
-57 -85 -56 -85 -100 0 -100 0 0 -45 0 -45 104 0 103 0 53 -80 53 -80 -57 -85
-56 -85 -100 0 -100 0 0 -45 0 -45 104 0 103 0 53 -80 53 -80 -53 -80 -53 -80
-103 0 -104 0 0 -50 0 -50 104 0 103 0 53 -80 53 -80 -57 -85 -56 -85 -100 0
-100 0 0 -45 0 -45 104 0 103 0 53 -80 53 -80 -53 -80 -53 -80 -103 0 -104 0
0 -50 0 -50 104 0 103 0 53 -80 53 -80 -53 -80 -53 -80 -103 0 -104 0 0 -51 0
-50 102 2 103 2 54 -81 54 -82 -53 -80 -53 -80 -103 0 -104 0 0 -45 0 -45 100
0 100 0 56 -85 57 -85 -53 -80 -53 -80 -103 0 -104 0 0 -45 0 -45 100 0 100 0
36 -50 c35 -49 37 -50 90 -50 30 0 54 2 54 6 0 3 -19 33 -42 66 -23 34 -41 67
-41 73 0 5 21 43 48 83 l48 72 117 0 117 0 53 -80 53 -80 -47 -70 -46 -70 58
0 c54 0 59 2 76 31 39 66 46 69 161 69 l105 0 32 -50 33 -50 58 0 c31 0 57 2
57 6 0 3 -19 33 -42 66 -23 34 -41 67 -41 73 0 5 21 43 48 83 l48 72 117 0
117 0 53 -79 52 -80 -39 -58 c-22 -32 -43 -64 -47 -70 -5 -10 7 -13 51 -13
l58 0 33 50 32 50 110 0 110 0 32 -50 33 -50 58 0 c31 0 57 2 57 6 0 3 -17 31
-38 62 -21 31 -41 62 -45 68 -3 6 16 44 43 85 l50 74 117 5 116 5 55 -82 54
-81 -39 -59 c-22 -32 -43 -64 -47 -70 -5 -10 7 -13 51 -13 l58 0 33 50 32 50
110 0 110 0 32 -50 33 -50 58 0 c31 0 57 2 57 6 0 3 -17 31 -38 62 -21 31 -41
62 -45 68 -3 6 16 44 43 85 l50 74 117 5 116 5 55 -82 54 -81 -39 -59 c-22
-32 -43 -64 -47 -70 -5 -10 7 -13 51 -13 l58 0 33 50 32 50 110 0 110 0 32
-50 33 -50 58 0 c31 0 57 2 57 6 0 3 -17 31 -38 62 -21 31 -41 62 -45 68 -3 6
16 44 43 85 l50 74 117 5 116 5 55 -82 54 -81 -39 -59 c-22 -32 -43 -64 -47
-70 -5 -10 7 -13 51 -13 l58 0 33 50 32 50 110 0 110 0 32 -50 33 -50 58 0
c31 0 57 2 57 5 0 3 -20 36 -45 74 l-46 68 51 74 51 74 116 5 116 5 55 -82 54
-81 -39 -59 c-22 -32 -43 -64 -47 -70 -5 -10 7 -13 47 -13 55 0 55 0 91 50
l36 50 110 0 110 0 32 -50 33 -50 58 0 c31 0 57 2 57 5 0 3 -21 36 -46 74
l-46 69 51 76 51 75 117 3 116 3 55 -82 54 -81 -39 -59 c-22 -32 -43 -64 -47
-70 -5 -10 7 -13 47 -13 55 0 55 0 91 50 l36 50 110 0 110 0 32 -50 33 -50 58
0 c44 0 56 3 51 13 -4 6 -25 38 -46 69 -21 31 -38 60 -38 63 0 3 23 39 50 80
l51 75 114 0 114 0 51 -76 c29 -42 49 -82 46 -90 -3 -8 -24 -41 -46 -74 l-41
-60 58 0 c55 0 60 2 77 31 39 66 46 69 161 69 l105 0 36 -50 c35 -49 37 -50
90 -50 30 0 54 2 54 6 0 3 -19 33 -42 66 -23 34 -41 67 -41 73 0 5 21 43 48
83 l48 72 118 0 118 0 51 -76 c29 -42 49 -82 46 -90 -3 -8 -24 -41 -46 -74
l-41 -60 58 0 c58 0 58 0 86 45 16 25 39 48 50 50 12 3 65 5 117 3 l95 -3 30
-47 c30 -47 30 -47 88 -47 31 -1 57 1 57 5 0 3 -19 33 -42 66 -23 34 -41 67
-41 73 0 5 21 43 48 83 l48 72 117 0 117 0 53 -80 53 -80 -47 -70 -46 -70 58
0 c54 0 59 2 76 31 39 66 46 69 161 69 l105 0 32 -50 33 -50 58 0 c31 0 57 2
57 6 0 3 -19 33 -42 66 -23 34 -41 67 -41 73 0 5 21 43 48 83 l48 72 117 0
117 0 53 -80 53 -80 -47 -70 -46 -70 57 0 58 0 33 50 32 50 110 0 110 0 32
-50 33 -50 58 0 c31 0 57 2 57 6 0 3 -17 31 -38 62 -21 31 -41 62 -45 68 -3 6
16 44 43 85 l50 74 117 5 116 5 55 -82 54 -81 -39 -59 c-22 -32 -43 -64 -47
-70 -5 -10 7 -13 51 -13 l58 0 33 50 32 50 110 0 110 0 32 -50 33 -50 58 0
c31 0 57 2 57 6 0 3 -17 31 -38 62 -21 31 -41 62 -45 68 -3 6 16 44 43 85 l50
74 117 5 116 5 55 -82 54 -81 -39 -59 c-22 -32 -43 -64 -47 -70 -5 -10 7 -13
51 -13 l58 0 33 50 32 50 110 0 110 0 32 -50 33 -50 58 0 c31 0 57 2 57 6 0 3
-17 31 -38 62 -21 31 -41 62 -45 68 -3 6 16 44 43 85 l50 74 117 5 116 5 55
-82 54 -81 -39 -59 c-22 -32 -43 -64 -47 -71 -5 -9 7 -12 51 -12 l58 0 33 50
32 50 110 0 110 0 32 -50 33 -50 58 0 c31 0 57 2 57 6 0 3 -17 31 -38 62 -21
31 -41 62 -45 68 -3 6 16 44 43 85 l50 74 117 5 116 5 55 -82 54 -81 -39 -59
c-22 -32 -43 -64 -47 -70 -5 -10 7 -13 47 -13 55 0 55 0 91 51 l37 50 114 -3
115 -3 0 48 0 47 -115 0 -115 0 -56 84 -56 84 54 76 c29 43 62 79 74 82 12 3
65 4 118 2 l96 -3 0 48 0 47 -117 0 -118 0 -53 81 -53 81 52 79 52 79 111 1
c61 1 114 1 119 0 4 0 7 21 7 49 l0 50 -117 0 -118 0 -53 81 -53 81 52 79 52
79 118 0 119 0 0 50 0 50 -117 0 -118 0 -53 81 -53 81 52 79 52 79 118 0 119
0 0 48 0 47 -113 -3 -113 -3 -58 86 -57 87 52 79 52 79 118 0 119 0 0 50 0 50
-117 0 -118 0 -53 81 -53 81 52 79 52 79 118 0 119 0 0 48 0 47 -107 -3 c-60
-1 -113 1 -119 5 -6 5 -34 43 -63 86 l-53 78 52 80 53 79 118 0 119 0 0 48 0
47 -113 -3 -113 -3 -58 86 -57 87 52 79 52 79 118 0 119 0 0 48 0 47 -113 -3
-113 -3 -58 86 -57 87 52 79 52 79 118 0 119 0 0 48 0 47 -113 -3 -113 -3 -58
86 -57 87 52 79 52 79 118 0 119 0 0 48 0 47 -113 -3 -113 -3 -56 84 -56 84
50 77 51 76 118 0 119 0 0 48 0 47 -113 -3 -113 -3 -58 86 -57 87 52 79 52 79
118 0 119 0 0 48 0 47 -113 -3 -113 -3 -58 86 -57 87 52 79 52 79 118 0 119 0
0 48 0 47 -114 -3 -114 -3 -22 35 c-21 35 -24 36 -81 36 -66 0 -65 4 -16 -68
l29 -44 -56 -84 -56 -84 -109 0 -108 0 -57 86 -57 86 35 54 36 54 -57 0 c-55
0 -59 -2 -81 -35 l-22 -35 -109 0 -109 0 -22 35 c-21 34 -24 35 -81 35 -66 0
-65 4 -16 -68 l29 -44 -56 -84 -56 -84 -109 0 -108 0 -57 86 -57 86 35 54 36
54 -57 0 c-55 0 -59 -2 -81 -35 l-22 -35 -109 0 -109 0 -22 35 c-21 34 -24 35
-81 35 -66 0 -65 4 -16 -68 l29 -44 -56 -84 -56 -84 -109 0 -108 0 -57 86 -57
86 35 54 36 54 -57 0 c-55 0 -59 -2 -81 -35 l-22 -35 -109 0 -109 0 -22 35
c-21 34 -24 35 -81 35 l-59 0 36 -55 37 -55 -57 -85 -56 -85 -109 0 -108 0
-57 85 -57 86 29 42 c48 71 49 67 -15 67 -55 0 -59 -2 -81 -35 l-22 -35 -109
0 -109 0 -22 35 c-21 34 -24 35 -81 35 l-59 0 36 -55 37 -55 -57 -85 -56 -85
-103 0 c-56 0 -107 4 -113 8 -6 4 -34 42 -63 85 l-51 79 28 41 c48 71 49 67
-15 67 -55 0 -59 -2 -81 -35 l-22 -35 -108 0 -107 0 -23 35 c-21 34 -25 35
-82 35 l-60 0 36 -55 37 -55 -57 -85 -57 -86 -107 3 -107 3 -57 84 -57 84 28
41 c47 70 48 66 -16 66 -55 0 -59 -2 -81 -35 l-22 -35 -108 0 -107 0 -23 35
c-21 34 -25 35 -82 35 l-60 0 36 -55 37 -55 -57 -85 -57 -86 -107 3 -107 3
-57 84 -57 83 35 52 34 51 -52 3 c-50 3 -54 1 -81 -32 l-29 -36 -106 0 -107 0
-23 35 c-21 34 -25 35 -82 35 l-61 0 36 -52 c19 -29 35 -57 35 -63 -1 -5 -24
-44 -53 -85 l-52 -75 -106 -3 -106 -3 -57 87 -57 86 35 54 36 54 -57 0 c-55 0
-59 -2 -81 -35 l-22 -35 -109 0 -109 0 -22 35 c-21 34 -24 35 -81 35 -66 0
-65 4 -16 -68 l29 -44 -56 -84 -56 -84 -109 0 -108 0 -57 86 -57 86 35 54 36
54 -57 0 c-55 0 -59 -2 -81 -35 l-22 -35 -109 0 -109 0 -22 35 c-21 34 -24 35
-81 35 -66 0 -65 4 -16 -68 l29 -44 -56 -84 -56 -84 -109 0 -108 0 -57 86 -57
86 35 54 36 54 -57 0 c-55 0 -59 -2 -81 -35 l-22 -35 -109 0 -109 0 -22 35
c-21 34 -24 35 -81 35 -66 0 -65 4 -16 -68 l29 -44 -56 -84 -56 -84 -109 0
-108 0 -57 86 -57 86 35 54 36 54 -57 0 c-55 0 -59 -2 -81 -35 l-22 -35 -109
0 -109 0 -22 35 c-21 34 -24 35 -81 35 -66 0 -65 4 -16 -68 l29 -44 -56 -84
-56 -84 -109 0 -108 0 -57 86 -57 86 35 54 36 54 -57 0 c-55 0 -59 -2 -81 -35
l-22 -35 -109 0 -109 0 -22 35 c-21 34 -24 35 -81 35 -66 0 -65 4 -16 -68 l29
-44 -56 -84 -56 -84 -109 0 -108 0 -57 85 -57 86 29 42 c48 71 49 67 -15 67
-55 0 -59 -2 -81 -35 l-22 -35 -109 0 -109 0 -22 35 c-21 34 -24 35 -81 35
l-59 0 36 -55 37 -55 -57 -85 -56 -85 -109 0 -108 0 -57 85 -57 86 29 42 c48
71 49 67 -15 67 -55 0 -59 -2 -81 -35 l-22 -35 -109 0 -109 0 -22 35 c-21 34
-24 35 -81 35 l-59 0 36 -55 37 -55 -57 -85 -56 -85 -103 0 c-118 0 -112 -4
-185 108 l-42 64 28 41 c48 71 49 67 -15 67 -55 0 -59 -2 -81 -35z m878 -205
l53 -80 -57 -85 -56 -85 -108 0 -107 0 -57 87 -56 86 51 78 52 79 116 0 116 0
53 -80z m840 0 l53 -80 -57 -85 -56 -85 -109 0 -108 0 -57 85 -56 85 52 80 53
80 116 0 116 0 53 -80z m838 -1 l54 -81 -56 -84 -56 -84 -109 0 -108 0 -57 85
-57 86 53 79 53 80 115 0 115 0 53 -81z m840 0 l54 -81 -56 -84 -56 -84 -109
0 -108 0 -57 86 -57 86 52 79 52 79 116 0 116 0 53 -81z m840 0 l54 -81 -56
-84 -56 -84 -109 0 -108 0 -57 86 -57 86 52 79 52 79 116 0 116 0 53 -81z
m840 0 l54 -81 -56 -84 -56 -84 -109 0 -108 0 -57 86 -57 86 52 79 52 79 116
0 116 0 53 -81z m840 0 l54 -81 -56 -84 -56 -84 -109 0 -108 0 -57 86 -57 86
52 79 52 79 116 0 116 0 53 -81z m831 3 c28 -43 51 -82 51 -88 -1 -5 -24 -43
-53 -84 l-52 -75 -110 0 -110 0 -57 84 -57 83 52 79 52 79 116 0 116 0 52 -78z
m841 -2 l53 -80 -57 -85 -56 -85 -108 0 -107 0 -57 87 -56 86 51 78 52 79 116
0 116 0 53 -80z m840 0 l53 -80 -57 -85 -56 -85 -108 0 -107 1 -57 85 -57 86
52 79 52 79 116 0 116 0 53 -80z m840 0 l53 -80 -57 -85 -56 -85 -109 0 -108
0 -57 85 -56 85 52 80 53 80 116 0 116 0 53 -80z m839 -1 l53 -80 -56 -84 -56
-85 -109 0 -108 0 -57 85 -56 85 52 80 53 80 115 0 115 0 54 -81z m839 0 l54
-81 -56 -84 -56 -84 -109 0 -108 0 -57 86 -57 86 52 79 52 79 116 0 116 0 53
-81z m840 0 l54 -81 -56 -84 -56 -84 -109 0 -108 0 -57 86 -57 86 52 79 52 79
116 0 116 0 53 -81z m-11328 -209 l53 -80 -57 -85 -56 -85 -108 0 -107 0 -57
87 -56 86 51 78 52 79 116 0 116 0 53 -80z m840 0 l53 -80 -57 -85 -56 -85
-108 0 -107 0 -57 87 -56 86 51 78 52 79 116 0 116 0 53 -80z m840 0 l53 -80
-57 -85 -56 -85 -109 0 -109 0 -56 86 -55 86 52 79 52 79 116 0 116 0 53 -80z
m838 -1 l54 -81 -56 -84 -56 -84 -109 0 -108 0 -57 86 -57 86 52 79 52 79 116
0 116 0 53 -81z m840 0 l54 -81 -56 -84 -56 -84 -109 0 -108 0 -57 86 -57 86
52 79 52 79 116 0 116 0 53 -81z m840 0 l54 -81 -56 -84 -56 -84 -109 0 -108
0 -57 86 -57 86 52 79 52 79 116 0 116 0 53 -81z m840 0 l54 -81 -56 -84 -56
-84 -109 0 -108 0 -57 86 -57 86 52 79 52 79 116 0 116 0 53 -81z m831 3 c28
-43 51 -82 51 -88 -1 -5 -24 -43 -53 -84 l-52 -75 -106 -3 -106 -3 -57 87 -57
86 52 79 52 79 112 0 112 0 52 -78z m841 -2 l53 -80 -57 -86 -57 -85 -107 3
-107 3 -57 84 -57 83 52 79 52 79 116 0 116 0 53 -80z m840 0 l53 -80 -57 -85
-56 -85 -108 0 -107 0 -57 87 -56 86 51 78 52 79 116 0 116 0 53 -80z m840 0
l53 -80 -57 -85 -56 -85 -108 0 -107 0 -57 87 -56 86 51 78 52 79 116 0 116 0
53 -80z m840 0 l53 -80 -57 -85 -56 -85 -109 0 -108 0 -57 85 -56 85 52 80 53
80 116 0 116 0 53 -80z m838 -1 l54 -81 -56 -84 -56 -84 -109 0 -108 0 -57 86
-57 86 52 79 52 79 116 0 116 0 53 -81z m840 0 l54 -81 -56 -84 -56 -84 -109
0 -108 0 -57 86 -57 86 52 79 52 79 116 0 116 0 53 -81z m840 0 l54 -81 -56
-84 -56 -84 -109 0 -108 0 -57 86 -57 86 52 79 52 79 116 0 116 0 53 -81z
m-11328 -209 l53 -80 -57 -86 -57 -85 -107 3 -107 3 -57 84 -57 83 52 79 52
79 116 0 116 0 53 -80z m840 0 l53 -80 -57 -85 -56 -85 -103 0 c-56 0 -107 4
-112 8 -6 4 -34 42 -63 84 l-53 77 53 80 53 81 116 0 116 0 53 -80z m840 0
l53 -80 -57 -85 -56 -85 -103 0 c-56 0 -107 4 -113 8 -6 4 -34 42 -63 85 l-53
78 52 80 53 79 117 0 117 0 53 -80z m838 -1 l54 -81 -56 -84 -56 -84 -103 0
c-56 0 -107 4 -113 8 -6 4 -34 42 -63 85 l-53 78 52 80 53 79 116 0 116 0 53
-81z m840 0 l54 -81 -56 -84 -56 -84 -109 0 -108 0 -57 86 -57 86 52 79 52 79
116 0 116 0 53 -81z m840 0 l54 -81 -56 -84 -56 -84 -109 0 -108 0 -57 86 -57
86 52 79 52 79 116 0 116 0 53 -81z m840 1 l52 -80 -56 -85 -57 -85 -107 0
-107 0 -57 86 -57 86 52 79 52 79 116 0 116 0 53 -80z m832 0 l53 -80 -57 -86
-57 -85 -107 3 -107 3 -57 84 -57 83 52 79 52 79 116 0 116 0 53 -80z m840 0
l53 -80 -57 -86 -57 -85 -107 3 -107 3 -57 84 -57 83 52 79 52 79 116 0 116 0
53 -80z m840 0 l53 -80 -57 -86 -57 -85 -107 3 -107 3 -57 84 -57 83 52 79 52
79 116 0 116 0 53 -80z m840 0 l53 -80 -57 -86 -57 -85 -107 3 -107 3 -57 84
c-33 48 -54 89 -50 96 4 6 27 41 52 78 l45 67 116 0 116 0 53 -80z m840 0 l53
-80 -57 -85 -56 -85 -103 0 c-56 0 -107 4 -113 8 -6 4 -34 42 -63 85 l-53 78
52 80 53 79 117 0 117 0 53 -80z m838 -1 l54 -81 -56 -84 -56 -84 -109 0 -108
0 -57 86 -57 86 52 79 52 79 116 0 116 0 53 -81z m840 0 l54 -81 -56 -84 -56
-84 -109 0 -108 0 -57 86 -57 86 52 79 52 79 116 0 116 0 53 -81z m-11328
-209 l53 -80 -57 -85 -56 -85 -108 0 -107 0 -57 87 -56 86 51 78 52 79 116 0
116 0 53 -80z m840 0 l53 -80 -57 -85 -56 -85 -108 0 -107 0 -55 85 c-30 46
-54 87 -54 92 1 4 23 41 50 80 l49 73 116 0 116 0 53 -80z m840 0 l53 -80 -57
-85 -56 -85 -109 0 -108 0 -53 81 c-30 44 -53 86 -53 92 0 7 21 45 48 85 l48
72 117 0 117 0 53 -80z m840 0 l53 -80 -57 -85 -56 -85 -109 0 -108 0 -57 86
-57 86 52 79 52 79 117 0 117 0 53 -80z m838 -1 l54 -81 -56 -84 -56 -84 -109
0 -108 0 -57 86 -57 86 52 79 52 79 116 0 116 0 53 -81z m840 0 l54 -81 -56
-84 -56 -84 -109 0 -108 0 -57 86 -57 86 52 79 52 79 116 0 116 0 53 -81z
m840 1 l52 -80 -56 -85 -57 -85 -107 0 -107 0 -57 86 -57 86 52 79 52 79 116
0 116 0 53 -80z m832 0 l53 -80 -57 -85 -56 -85 -104 0 -103 0 -57 86 -57 86
52 79 52 79 112 0 112 0 53 -80z m840 0 l53 -80 -57 -86 -57 -85 -107 3 -107
3 -57 84 -57 83 52 79 52 79 116 0 116 0 53 -80z m840 0 l53 -80 -57 -86 -57
-85 -107 3 -107 3 -57 84 -57 83 52 79 52 79 116 0 116 0 53 -80z m840 0 l53
-80 -57 -85 -56 -85 -108 0 -107 0 -57 87 -56 86 51 78 52 79 116 0 116 0 53
-80z m840 0 l53 -80 -57 -85 -56 -85 -108 0 -107 0 -54 81 c-30 44 -54 86 -54
92 0 7 21 45 48 85 l48 72 117 0 117 0 53 -80z m840 0 l53 -80 -57 -85 -56
-85 -109 0 -108 0 -57 86 -57 86 52 79 52 79 117 0 117 0 53 -80z m838 -1 l54
-81 -56 -84 -56 -84 -109 0 -108 0 -57 86 -57 86 52 79 52 79 116 0 116 0 53
-81z m840 0 l54 -81 -56 -84 -56 -84 -109 0 -108 0 -57 86 -57 86 52 79 52 79
116 0 116 0 53 -81z m-11328 -208 l52 -80 -55 -78 -54 -78 -110 -3 -110 -3
-55 83 -55 83 51 77 51 78 116 0 116 0 53 -79z m835 7 c27 -40 48 -78 48 -83
0 -6 -23 -46 -52 -88 l-52 -77 -108 0 -108 0 -56 84 -55 83 50 77 51 76 117 0
117 0 48 -72z m840 0 c27 -40 48 -78 48 -83 0 -6 -23 -46 -52 -88 l-52 -77
-108 0 -108 0 -56 84 -55 83 50 77 51 76 117 0 117 0 48 -72z m842 -7 l51 -78
-54 -82 -54 -81 -109 0 -108 0 -56 84 -55 83 50 77 51 76 116 0 116 0 52 -79z
m840 0 l51 -78 -54 -82 -54 -81 -109 0 -108 0 -56 84 -55 83 50 77 51 76 116
0 116 0 52 -79z m840 0 l51 -78 -54 -82 -54 -81 -109 0 -108 0 -56 84 -55 83
50 77 51 76 116 0 116 0 52 -79z m840 0 l51 -78 -54 -82 -54 -81 -109 0 -108
0 -56 84 -55 83 50 77 51 76 116 0 116 0 52 -79z m833 -1 l52 -79 -54 -78 -53
-78 -111 -3 -111 -3 -52 79 c-28 43 -51 82 -51 87 0 5 21 42 48 82 l47 73 116
0 116 0 53 -80z m840 0 l52 -79 -54 -78 -53 -78 -111 -3 -111 -3 -52 79 c-28
43 -51 82 -51 87 0 5 21 42 48 82 l47 73 116 0 116 0 53 -80z m840 0 l52 -79
-54 -78 -53 -78 -111 -3 -111 -3 -55 83 -55 83 51 77 51 78 116 0 116 0 53
-80z m839 1 l52 -78 -56 -82 -56 -81 -108 0 -108 0 -55 83 -55 82 51 78 51 77
116 0 116 0 52 -79z m836 7 c27 -40 48 -78 48 -83 0 -6 -23 -46 -52 -88 l-52
-77 -108 0 -108 0 -56 84 -55 83 50 77 51 76 117 0 117 0 48 -72z m840 0 c27
-40 48 -78 48 -83 0 -6 -23 -46 -52 -88 l-52 -77 -108 0 -108 0 -56 84 -55 83
50 77 51 76 117 0 117 0 48 -72z m842 -7 l51 -78 -54 -82 -54 -81 -109 0 -108
0 -56 84 -55 83 50 77 51 76 116 0 116 0 52 -79z m-11328 -199 c28 -43 51 -82
51 -88 -1 -5 -24 -43 -53 -84 l-52 -75 -111 -3 -112 -3 -55 86 -56 87 52 79
52 79 116 0 116 0 52 -78z m839 -3 l54 -81 -56 -84 -56 -84 -109 0 -108 0 -57
85 -56 85 52 80 53 80 115 0 115 0 53 -81z m840 0 l54 -81 -56 -84 -56 -84
-109 0 -108 0 -57 85 -56 85 52 80 53 80 115 0 115 0 53 -81z m840 0 l54 -81
-56 -84 -56 -84 -109 0 -108 0 -57 85 -56 85 52 80 53 80 115 0 115 0 53 -81z
m840 0 l54 -81 -56 -84 -56 -84 -109 0 -108 0 -57 85 -56 85 52 80 53 80 115
0 115 0 53 -81z m840 0 l54 -81 -56 -84 -56 -84 -109 0 -108 0 -57 86 -57 85
53 80 52 79 116 0 115 0 53 -81z m840 0 l54 -81 -56 -84 -56 -84 -109 0 -108
0 -57 86 -57 86 52 79 52 79 116 0 116 0 53 -81z m831 3 c28 -43 51 -82 51
-88 -1 -5 -24 -43 -53 -84 l-52 -75 -106 -3 -106 -3 -57 87 -57 86 52 79 52
79 112 0 112 0 52 -78z m840 0 c28 -43 51 -82 51 -88 -1 -5 -24 -43 -53 -84
l-52 -75 -110 -3 -110 -2 -57 86 -56 87 51 78 52 79 116 0 116 0 52 -78z m839
-1 c28 -44 52 -83 52 -88 -1 -4 -24 -42 -53 -83 l-52 -75 -111 -3 -111 -3 -56
86 -57 85 52 80 53 80 115 0 115 0 53 -79z m840 -2 l54 -81 -56 -84 -56 -84
-109 0 -108 0 -57 85 -56 85 52 80 53 80 115 0 115 0 53 -81z m840 0 l54 -81
-56 -84 -56 -84 -109 0 -108 0 -57 85 -56 85 52 80 53 80 115 0 115 0 53 -81z
m840 0 l54 -81 -56 -84 -56 -84 -109 0 -108 0 -57 85 -56 85 52 80 53 80 115
0 115 0 53 -81z m840 0 l54 -81 -56 -84 -56 -84 -109 0 -108 0 -57 85 -56 85
52 80 53 80 115 0 115 0 53 -81z m840 0 l54 -81 -56 -84 -56 -84 -109 0 -108
0 -57 86 -57 86 52 79 52 79 116 0 116 0 53 -81z m-11328 -209 l53 -80 -57
-85 -56 -85 -109 0 -108 0 -57 85 -56 85 52 80 53 80 116 0 116 0 53 -80z
m838 -1 l54 -81 -56 -84 -56 -84 -109 0 -108 0 -57 85 -56 85 52 80 53 80 115
0 115 0 53 -81z m840 0 l54 -81 -56 -84 -56 -84 -109 0 -108 0 -57 85 -56 85
52 80 53 80 115 0 115 0 53 -81z m840 0 l54 -81 -56 -84 -56 -84 -109 0 -108
0 -57 85 -56 85 52 80 53 80 115 0 115 0 53 -81z m840 0 l54 -81 -56 -84 -56
-84 -109 0 -108 0 -57 86 -57 86 52 79 52 79 116 0 116 0 53 -81z m840 0 l54
-81 -56 -84 -56 -84 -109 0 -108 0 -57 86 -57 86 52 79 52 79 116 0 116 0 53
-81z m840 0 l54 -81 -56 -84 -56 -84 -109 0 -108 0 -57 86 -57 86 52 79 52 79
116 0 116 0 53 -81z m831 3 c28 -43 51 -82 51 -88 -1 -5 -24 -43 -53 -84 l-52
-75 -110 -3 -110 -2 -57 86 -56 87 51 78 52 79 116 0 116 0 52 -78z m840 0
c28 -43 51 -82 51 -88 -1 -5 -24 -43 -53 -84 l-52 -75 -110 -3 -111 -3 -57 86
-56 86 52 79 52 80 116 0 116 0 52 -78z m841 -2 l53 -80 -57 -85 -56 -85 -109
0 -108 0 -57 85 -56 85 52 80 53 80 116 0 116 0 53 -80z m838 -1 l54 -81 -56
-84 -56 -84 -109 0 -108 0 -57 85 -56 85 52 80 53 80 115 0 115 0 53 -81z
m840 0 l54 -81 -56 -84 -56 -84 -109 0 -108 0 -57 85 -56 85 52 80 53 80 115
0 115 0 53 -81z m840 0 l54 -81 -56 -84 -56 -84 -109 0 -108 0 -57 85 -56 85
52 80 53 80 115 0 115 0 53 -81z m840 0 l54 -81 -56 -84 -56 -84 -109 0 -108
0 -57 86 -57 86 52 79 52 79 116 0 116 0 53 -81z m-11328 -209 l53 -80 -57
-85 -56 -85 -109 0 -109 0 -56 86 -55 86 52 79 52 79 116 0 116 0 53 -80z
m838 -1 l54 -81 -56 -84 -56 -84 -109 0 -108 0 -57 85 -56 85 52 80 53 80 115
0 115 0 53 -81z m840 0 l54 -81 -56 -84 -56 -84 -109 0 -108 0 -57 85 -56 85
52 80 53 80 115 0 115 0 53 -81z m840 0 l54 -81 -56 -84 -56 -84 -109 0 -108
0 -57 85 -56 85 52 80 53 80 115 0 115 0 53 -81z m840 0 l54 -81 -56 -84 -56
-84 -109 0 -108 0 -57 86 -57 86 52 79 52 79 116 0 116 0 53 -81z m840 0 l54
-81 -56 -84 -56 -84 -109 0 -108 0 -57 86 -57 86 52 79 52 79 116 0 116 0 53
-81z m840 0 l54 -81 -56 -84 -56 -84 -109 0 -108 0 -57 86 -57 86 52 79 52 79
116 0 116 0 53 -81z m831 3 c28 -43 51 -82 51 -88 -1 -5 -24 -43 -53 -84 l-52
-75 -106 -3 -106 -3 -57 87 -57 86 52 79 52 79 112 0 112 0 52 -78z m840 0
c28 -43 51 -82 51 -88 -1 -5 -24 -43 -53 -84 l-52 -75 -110 -3 -110 -2 -57 86
-56 87 51 78 52 79 116 0 116 0 52 -78z m841 -2 l53 -80 -57 -85 -56 -85 -109
0 -109 0 -56 86 -55 86 52 79 52 79 116 0 116 0 53 -80z m840 0 l53 -80 -57
-85 -56 -85 -109 0 -108 0 -57 85 -56 85 52 80 53 80 116 0 116 0 53 -80z
m838 -1 l54 -81 -56 -84 -56 -84 -109 0 -108 0 -57 85 -56 85 52 80 53 80 115
0 115 0 53 -81z m840 0 l54 -81 -56 -84 -56 -84 -109 0 -108 0 -57 85 -56 85
52 80 53 80 115 0 115 0 53 -81z m840 0 l54 -81 -56 -84 -56 -84 -109 0 -108
0 -57 85 -56 85 52 80 53 80 115 0 115 0 53 -81z m840 0 l54 -81 -56 -84 -56
-84 -109 0 -108 0 -57 86 -57 86 52 79 52 79 116 0 116 0 53 -81z m-11328
-209 l53 -80 -57 -85 -56 -85 -109 0 -109 0 -56 86 -55 86 52 79 52 79 116 0
116 0 53 -80z m838 -1 l54 -81 -56 -84 -56 -84 -109 0 -108 0 -57 85 -56 85
52 80 53 80 115 0 115 0 53 -81z m840 0 l54 -81 -56 -84 -56 -84 -109 0 -108
0 -57 85 -56 85 52 80 53 80 115 0 115 0 53 -81z m840 0 l54 -81 -56 -84 -56
-84 -109 0 -108 0 -57 86 -58 86 54 79 53 79 115 0 115 0 53 -81z m840 0 l54
-81 -56 -84 -56 -84 -109 0 -108 0 -57 86 -57 86 52 79 52 79 116 0 116 0 53
-81z m840 0 l54 -81 -56 -84 -56 -84 -109 0 -108 0 -57 86 -57 86 52 79 52 79
116 0 116 0 53 -81z m840 0 l54 -81 -56 -84 -56 -84 -109 0 -108 0 -57 86 -57
86 52 79 52 79 116 0 116 0 53 -81z m831 3 c28 -43 51 -82 51 -88 -1 -5 -24
-43 -53 -84 l-52 -75 -110 -3 -110 -2 -57 86 -56 87 51 78 52 79 116 0 116 0
52 -78z m840 0 c28 -43 51 -82 51 -88 -1 -5 -24 -43 -53 -84 l-52 -75 -110 -3
-110 -2 -57 86 -56 87 51 78 52 79 116 0 116 0 52 -78z m841 -2 l53 -80 -57
-85 -56 -85 -109 0 -108 0 -57 85 -56 85 52 80 53 80 116 0 116 0 53 -80z
m838 -1 l54 -81 -56 -84 -56 -84 -109 0 -108 0 -57 85 -56 85 52 80 53 80 115
0 115 0 53 -81z m840 0 l54 -81 -56 -84 -56 -84 -109 0 -108 0 -57 85 -56 85
52 80 53 80 115 0 115 0 53 -81z m840 0 l54 -81 -56 -84 -56 -84 -109 0 -108
0 -57 85 -56 85 52 80 53 80 115 0 115 0 53 -81z m840 0 l54 -81 -56 -84 -56
-84 -109 0 -108 0 -57 86 -57 86 52 79 52 79 116 0 116 0 53 -81z m-11328
-209 l53 -80 -57 -86 -57 -85 -107 3 -107 3 -57 84 -57 83 52 79 52 79 116 0
116 0 53 -80z m840 0 l53 -80 -57 -85 -56 -85 -109 0 -108 0 -57 85 -56 85 52
80 53 80 116 0 116 0 53 -80z m840 0 l53 -80 -57 -85 -56 -85 -109 0 -108 0
-57 85 -56 85 52 80 53 80 116 0 116 0 53 -80z m838 -1 l54 -81 -56 -84 -56
-84 -109 0 -108 0 -57 85 -56 85 52 80 53 80 115 0 115 0 53 -81z m840 0 l54
-81 -56 -84 -56 -84 -109 0 -108 0 -57 86 -57 86 52 79 52 79 116 0 116 0 53
-81z m840 0 l54 -81 -56 -84 -56 -84 -109 0 -108 0 -57 86 -57 86 52 79 52 79
116 0 116 0 53 -81z m840 0 l54 -81 -56 -84 -56 -84 -109 0 -108 0 -57 86 -57
86 52 79 52 79 116 0 116 0 53 -81z m831 3 c28 -43 51 -82 51 -88 -1 -5 -24
-43 -53 -84 l-52 -75 -106 -3 -106 -3 -57 87 -57 86 52 79 52 79 112 0 112 0
52 -78z m841 -2 l53 -80 -57 -86 -57 -85 -107 3 -107 3 -57 84 -57 83 52 79
52 79 116 0 116 0 53 -80z m840 0 l53 -80 -57 -86 -57 -85 -107 3 -107 3 -57
84 -57 83 52 79 52 79 116 0 116 0 53 -80z m840 0 l53 -80 -57 -85 -56 -85
-103 0 c-119 0 -115 -2 -185 108 l-41 64 52 79 52 79 116 0 116 0 53 -80z
m838 -1 l54 -81 -56 -84 -56 -84 -109 0 -108 0 -57 85 -56 85 52 80 53 80 115
0 115 0 53 -81z m840 0 l54 -81 -56 -84 -56 -84 -109 0 -108 0 -57 86 -57 86
52 79 52 79 116 0 116 0 53 -81z m840 0 l54 -81 -56 -84 -56 -84 -109 0 -108
0 -57 86 -57 86 52 79 52 79 116 0 116 0 53 -81z m840 0 l54 -81 -56 -84 -56
-84 -109 0 -108 0 -57 86 -57 86 52 79 52 79 116 0 116 0 53 -81z m-11328
-209 l53 -80 -57 -85 -56 -85 -109 0 -108 0 -57 85 -56 85 52 80 53 80 116 0
116 0 53 -80z m840 0 l53 -80 -57 -85 -56 -85 -109 0 -108 0 -57 85 -56 85 52
80 53 80 116 0 116 0 53 -80z m838 -1 l54 -81 -56 -84 -56 -84 -109 0 -108 0
-57 86 -57 86 52 79 52 79 116 0 116 0 53 -81z m840 0 l54 -81 -56 -84 -56
-84 -109 0 -108 0 -57 86 -57 86 52 79 52 79 116 0 116 0 53 -81z m840 0 l54
-81 -56 -84 -56 -84 -109 0 -108 0 -57 86 -57 86 52 79 52 79 116 0 116 0 53
-81z m840 0 l54 -81 -56 -84 -56 -84 -109 0 -108 0 -57 86 -57 86 52 79 52 79
116 0 116 0 53 -81z m840 0 l53 -80 -57 -85 -58 -84 -106 0 -107 0 -57 86 -57
86 52 79 52 79 116 0 116 0 53 -81z m832 1 l53 -80 -57 -86 -57 -85 -107 3
-107 3 -57 84 -57 83 52 79 52 79 116 0 116 0 53 -80z m840 0 l53 -80 -57 -85
-56 -85 -108 0 -107 0 -57 87 -56 86 51 78 52 79 116 0 116 0 53 -80z m840 0
l53 -80 -57 -85 -56 -85 -108 0 -107 0 -57 87 -56 86 51 78 52 79 116 0 116 0
53 -80z m840 0 l53 -80 -57 -85 -56 -85 -109 0 -108 0 -57 85 -56 85 52 80 53
80 116 0 116 0 53 -80z m840 0 l53 -80 -57 -85 -56 -85 -109 0 -108 0 -57 85
-56 85 52 80 53 80 116 0 116 0 53 -80z m838 -1 l54 -81 -56 -84 -56 -84 -109
0 -108 0 -57 86 -57 86 52 79 52 79 116 0 116 0 53 -81z m840 0 l54 -81 -56
-84 -56 -84 -109 0 -108 0 -57 86 -57 86 52 79 52 79 116 0 116 0 53 -81z
m-11328 -209 l53 -80 -57 -85 -56 -85 -108 0 -107 0 -57 87 -56 86 51 78 52
79 116 0 116 0 53 -80z m840 0 l53 -80 -57 -85 -56 -85 -108 0 -107 0 -57 87
-56 86 51 78 52 79 116 0 116 0 53 -80z m839 -1 l53 -80 -56 -84 -56 -85 -109
0 -108 0 -57 85 -56 85 52 80 53 80 115 -1 115 0 54 -80z m839 0 l54 -81 -56
-84 -56 -84 -109 0 -108 0 -57 86 -57 86 52 79 52 79 116 0 116 0 53 -81z
m840 0 l54 -81 -56 -84 -56 -84 -109 0 -108 0 -57 86 -57 86 52 79 52 79 116
0 116 0 53 -81z m840 0 l54 -81 -56 -84 -56 -84 -109 0 -108 0 -57 86 -57 86
52 79 52 79 116 0 116 0 53 -81z m840 0 l54 -81 -56 -84 -56 -84 -109 0 -108
0 -57 86 -57 86 52 79 52 79 116 0 116 0 53 -81z m831 3 c28 -43 51 -82 51
-88 -1 -5 -24 -43 -53 -84 l-52 -75 -106 -3 -106 -3 -57 87 -57 86 52 79 52
79 112 0 112 0 52 -78z m841 -2 l53 -80 -57 -86 -57 -85 -107 3 -107 3 -57 84
-57 83 52 79 52 79 116 0 116 0 53 -80z m840 0 l53 -80 -57 -86 -57 -85 -107
3 -107 3 -57 84 -57 83 52 79 52 79 116 0 116 0 53 -80z m840 0 l53 -80 -57
-85 -56 -85 -109 0 -109 0 -56 86 -55 86 52 79 52 79 116 0 116 0 53 -80z
m840 0 l53 -80 -57 -85 -56 -85 -109 0 -108 0 -57 85 -56 85 52 80 53 80 116
0 116 0 53 -80z m838 -1 l54 -81 -56 -84 -56 -84 -109 0 -108 0 -57 86 -57 86
52 79 53 79 115 0 116 0 53 -81z m840 0 l54 -81 -56 -84 -56 -84 -109 0 -108
0 -57 86 -57 86 52 79 52 79 116 0 116 0 53 -81z m840 0 l54 -81 -56 -84 -56
-84 -109 0 -108 0 -57 86 -57 86 52 79 52 79 116 0 116 0 53 -81z m-11328
-209 l53 -80 -57 -86 -57 -85 -107 3 -107 3 -57 84 -57 83 52 79 52 79 116 0
116 0 53 -80z m840 0 l53 -80 -57 -86 -57 -85 -106 3 -107 3 -58 83 -58 82 53
80 52 80 116 0 116 0 53 -80z m840 0 l53 -80 -57 -85 -56 -85 -103 0 c-56 0
-107 4 -113 8 -6 4 -34 42 -63 85 l-53 78 52 80 53 79 117 0 117 0 53 -80z
m838 -1 l54 -81 -56 -84 -56 -84 -103 0 c-56 0 -107 4 -113 8 -6 4 -34 42 -63
85 l-53 78 52 80 53 79 116 0 116 0 53 -81z m840 0 l54 -81 -56 -84 -56 -84
-103 0 c-56 0 -107 4 -113 8 -6 4 -34 42 -63 85 l-53 78 52 80 53 79 116 0
116 0 53 -81z m840 0 l54 -81 -56 -84 -56 -84 -103 0 c-56 0 -107 4 -113 8 -6
4 -34 42 -63 85 l-53 78 52 80 53 79 116 0 116 0 53 -81z m840 1 l52 -80 -56
-85 -56 -85 -102 0 c-55 0 -106 4 -112 8 -6 4 -34 42 -63 85 l-53 78 52 80 53
79 116 0 116 0 53 -80z m832 0 l53 -80 -57 -86 -57 -85 -107 3 -107 3 -57 84
-57 83 52 79 52 79 116 0 116 0 53 -80z m840 0 l53 -80 -57 -86 -57 -85 -107
3 -107 3 -57 84 -57 83 52 79 52 79 116 0 116 0 53 -80z m840 0 l53 -80 -57
-86 -57 -85 -107 3 -107 3 -57 84 -57 83 52 79 52 79 116 0 116 0 53 -80z
m840 0 l53 -80 -57 -86 -57 -85 -107 3 -107 3 -57 84 -57 83 52 79 52 79 116
0 116 0 53 -80z m840 0 l53 -80 -57 -85 -56 -85 -103 0 c-56 0 -107 4 -113 8
-6 4 -34 42 -63 85 l-53 78 52 80 53 79 117 0 117 0 53 -80z m838 -1 l54 -81
-56 -84 -56 -84 -103 0 c-56 0 -107 4 -113 8 -6 4 -34 42 -63 85 l-53 78 52
80 53 79 116 0 116 0 53 -81z m840 0 l54 -81 -56 -84 -56 -84 -103 0 c-56 0
-107 4 -113 8 -6 4 -34 42 -63 85 l-53 78 52 80 53 79 116 0 116 0 53 -81z
m-11328 -209 l53 -80 -57 -86 -57 -85 -107 3 -107 3 -57 84 -57 83 52 79 52
79 116 0 116 0 53 -80z m840 0 l53 -80 -57 -85 -56 -85 -108 0 -107 0 -57 87
-56 86 51 78 52 79 116 0 116 0 53 -80z m840 0 l53 -80 -57 -85 -56 -85 -109
0 -108 0 -53 81 c-30 44 -53 86 -53 92 0 7 21 45 48 85 l48 72 117 0 117 0 53
-80z m840 0 l53 -80 -57 -85 -56 -85 -109 0 -108 0 -57 86 -57 86 52 79 52 79
117 0 117 0 53 -80z m838 -1 l54 -81 -56 -84 -56 -84 -109 0 -108 0 -57 86
-57 86 52 79 52 79 116 0 116 0 53 -81z m840 0 l54 -81 -56 -84 -56 -84 -109
0 -108 0 -57 86 -57 86 52 79 52 79 116 0 116 0 53 -81z m840 1 l52 -80 -56
-85 -57 -85 -107 0 -107 0 -57 86 -57 86 52 79 52 79 116 0 116 0 53 -80z
m832 0 l53 -80 -57 -85 -56 -85 -104 0 -103 0 -57 86 -57 86 52 79 52 79 112
0 112 0 53 -80z m840 0 l53 -80 -57 -86 -57 -85 -107 3 -107 3 -57 84 -57 83
52 79 52 79 116 0 116 0 53 -80z m840 0 l53 -80 -57 -86 -57 -85 -107 3 -107
3 -57 84 -57 83 52 79 52 79 116 0 116 0 53 -80z m840 0 l53 -80 -57 -85 -56
-85 -108 0 -107 0 -57 87 -56 86 51 78 52 79 116 0 116 0 53 -80z m840 0 l53
-80 -57 -85 -56 -85 -108 0 -107 0 -55 85 c-30 47 -54 90 -52 95 1 6 23 42 49
80 l46 70 117 0 117 0 53 -80z m840 0 l53 -80 -57 -85 -56 -85 -109 0 -108 0
-53 81 c-30 44 -53 86 -53 92 0 7 21 45 48 85 l48 72 117 0 117 0 53 -80z
m838 -1 l54 -81 -56 -84 -56 -84 -109 0 -108 0 -57 86 -57 86 52 79 52 79 116
0 116 0 53 -81z m840 0 l54 -81 -56 -84 -56 -84 -109 0 -108 0 -57 86 -57 86
52 79 52 79 116 0 116 0 53 -81z m-11328 -209 l53 -80 -53 -80 -53 -80 -113 0
-113 0 -50 74 c-28 41 -52 79 -53 84 -2 6 20 44 47 86 l50 75 116 1 116 0 53
-80z m840 0 l53 -80 -53 -80 -53 -80 -113 0 -113 0 -52 77 c-29 42 -52 82 -52
88 0 5 21 43 48 83 l48 72 117 0 117 0 53 -80z m840 0 l53 -80 -53 -80 -53
-80 -116 0 -116 0 -53 81 -53 81 52 79 52 79 117 0 117 0 53 -80z m839 0 l54
-79 -53 -81 -53 -80 -116 0 -116 0 -53 81 -53 81 52 79 52 79 116 0 116 0 54
-80z m839 -1 l53 -81 -52 -79 -52 -79 -116 0 -116 0 -53 81 -53 81 52 79 52
79 116 0 116 0 53 -81z m840 1 l52 -80 -52 -80 -53 -80 -115 0 -115 0 -53 81
-53 81 52 79 52 79 116 0 116 0 53 -80z m840 0 l52 -80 -52 -80 -53 -80 -115
0 -115 0 -53 81 -53 81 52 79 52 79 116 0 116 0 53 -80z m832 0 l53 -80 -53
-80 -53 -80 -113 0 -114 0 -54 81 -54 82 51 78 52 79 116 0 116 0 53 -80z
m840 0 l53 -80 -53 -80 -53 -80 -113 0 -114 0 -54 81 -54 82 51 78 52 79 116
0 116 0 53 -80z m840 0 l53 -80 -53 -80 -53 -80 -113 0 -114 0 -54 81 -54 82
51 78 52 79 116 0 116 0 53 -80z m840 0 l53 -80 -53 -80 -53 -80 -113 0 -113
0 -52 77 c-29 42 -52 82 -52 88 0 7 22 44 49 83 l49 72 116 0 116 0 53 -80z
m840 0 l53 -80 -53 -80 -53 -80 -116 0 -116 0 -53 81 -53 81 52 79 52 79 117
0 117 0 53 -80z m840 0 l53 -80 -53 -80 -53 -80 -116 0 -116 0 -53 81 -53 81
52 79 52 79 117 0 117 0 53 -80z m838 -1 l53 -81 -52 -79 -52 -79 -116 0 -116
0 -53 81 -53 81 52 79 52 79 116 0 116 0 53 -81z m-11328 -209 l53 -80 -54
-81 -54 -81 -110 0 -110 0 -57 82 -57 82 52 79 52 79 116 0 116 0 53 -80z
m840 0 l53 -80 -54 -81 -54 -81 -110 0 -110 0 -57 83 c-65 94 -67 70 10 187
l35 52 117 0 117 0 53 -80z m840 0 l53 -80 -54 -81 -54 -81 -110 0 -110 0 -57
83 c-65 94 -67 70 10 187 l35 52 117 0 117 0 53 -80z m840 0 l53 -80 -54 -81
-54 -81 -110 0 -110 0 -43 58 c-79 109 -78 100 -20 187 l51 77 117 0 117 0 53
-80z m838 -1 l53 -81 -51 -78 -52 -79 -110 -3 c-60 -2 -113 -1 -117 2 -4 3
-31 40 -60 83 l-53 78 52 80 53 79 116 0 116 0 53 -81z m840 0 l53 -81 -48
-71 c-26 -39 -51 -75 -54 -80 -6 -8 -227 -13 -233 -5 -2 2 -27 38 -55 81 l-53
78 52 80 53 79 116 0 116 0 53 -81z m840 1 l52 -80 -51 -78 c-29 -42 -53 -78
-55 -80 -1 -2 -52 -3 -114 -3 -62 0 -113 1 -114 3 -2 2 -27 38 -55 81 l-53 78
52 80 53 79 116 0 116 0 53 -80z m832 0 l53 -80 -54 -81 -54 -81 -108 0 c-60
1 -110 2 -111 4 -2 2 -27 38 -55 81 l-53 78 52 80 53 79 112 0 112 0 53 -80z
m840 0 l53 -80 -54 -81 -54 -81 -110 0 -110 0 -57 82 -57 82 52 79 52 79 116
0 116 0 53 -80z m840 0 l53 -80 -54 -81 -54 -81 -110 0 -110 0 -57 82 -57 82
52 79 52 79 116 0 116 0 53 -80z m840 0 l53 -80 -54 -81 -54 -81 -110 0 -110
0 -57 82 -57 82 52 79 52 79 116 0 116 0 53 -80z m840 0 l53 -80 -54 -81 -54
-81 -110 0 -110 0 -57 83 c-65 94 -67 70 10 187 l35 52 117 0 117 0 53 -80z
m840 0 l53 -80 -54 -81 -54 -81 -113 0 c-63 1 -115 2 -116 4 -2 2 -27 38 -55
81 l-53 78 52 80 53 79 117 0 117 0 53 -80z m839 0 l54 -80 -53 -79 -52 -80
-110 -3 c-60 -2 -113 -1 -117 2 -4 3 -31 40 -60 83 l-53 78 52 80 53 79 116 0
117 0 53 -80z m839 -1 l53 -81 -51 -78 -52 -79 -110 -3 c-60 -2 -113 -1 -117
2 -4 3 -31 40 -60 83 l-53 78 52 80 53 79 116 0 116 0 53 -81z m-11328 -209
l53 -80 -57 -86 -57 -85 -107 3 -107 3 -57 83 -56 83 51 80 51 79 117 0 116 0
53 -80z m840 0 l53 -80 -57 -86 -57 -85 -107 3 -107 3 -57 84 c-65 96 -67 72
10 189 l35 52 117 0 117 0 53 -80z m840 0 l53 -80 -57 -86 -57 -85 -107 3
-107 3 -57 84 c-65 96 -67 72 10 189 l35 52 117 0 117 0 53 -80z m840 0 l53
-80 -57 -85 -56 -85 -103 0 c-56 0 -107 4 -113 8 -6 4 -34 42 -63 85 l-53 78
52 80 53 79 117 0 117 0 53 -80z m840 0 l53 -80 -57 -85 -56 -85 -103 0 c-56
0 -107 4 -113 8 -6 4 -34 42 -63 85 l-53 78 52 80 53 79 117 0 117 0 53 -80z
m838 0 l52 -80 -56 -85 -57 -85 -107 0 -107 0 -57 86 -57 86 52 79 52 79 116
0 116 0 53 -80z m840 0 l52 -80 -56 -85 -57 -85 -107 0 -107 0 -57 86 -57 86
52 79 52 79 116 0 116 0 53 -80z m832 0 l53 -80 -57 -86 -57 -85 -107 3 -107
3 -57 84 -57 83 52 79 52 79 116 0 116 0 53 -80z m840 0 l53 -80 -57 -86 -57
-85 -107 3 -107 3 -57 84 -57 83 52 79 52 79 116 0 116 0 53 -80z m840 0 l53
-80 -57 -86 -57 -85 -107 3 -107 3 -57 84 c-65 96 -67 72 10 189 l35 52 117 0
117 0 53 -80z m840 0 l53 -80 -57 -86 -57 -85 -107 3 -107 3 -57 84 c-65 96
-67 72 10 189 l35 52 117 0 117 0 53 -80z m840 0 l53 -80 -57 -86 -57 -85
-107 3 -107 3 -57 84 c-65 96 -67 72 10 189 l35 52 117 0 117 0 53 -80z m840
0 l53 -80 -57 -86 -57 -85 -107 3 -107 3 -57 84 c-65 96 -67 72 10 189 l35 52
117 0 117 0 53 -80z m838 0 l52 -80 -56 -85 -57 -85 -107 0 -107 0 -57 86 -57
86 52 79 52 79 116 0 116 0 53 -80z m-11328 -210 l53 -80 -53 -80 -53 -80
-113 0 -113 0 -52 77 c-29 42 -52 82 -52 88 0 5 21 43 48 83 l48 72 117 0 117
0 53 -80z m840 0 l53 -80 -53 -80 -53 -80 -113 0 -113 0 -52 77 c-29 42 -52
82 -52 88 0 5 21 43 48 83 l48 72 117 0 117 0 53 -80z m840 0 l53 -80 -53 -80
-53 -80 -113 0 -113 0 -52 77 c-29 42 -52 82 -52 88 0 5 21 43 48 83 l48 72
117 0 117 0 53 -80z m840 0 l53 -80 -53 -80 -53 -80 -112 0 -113 0 -46 65
c-72 103 -71 92 -14 178 l51 77 117 0 117 0 53 -80z m839 1 l52 -79 -53 -81
-53 -81 -115 0 -115 0 -53 81 -53 81 52 79 52 79 117 0 117 0 52 -79z m839 -1
l53 -79 -53 -80 -53 -81 -115 0 -115 0 -53 81 -53 81 52 79 52 79 116 0 116
-1 53 -79z m840 0 l52 -80 -52 -80 -53 -80 -115 0 -115 0 -53 81 -53 81 52 79
52 79 116 0 116 0 53 -80z m832 0 l53 -80 -53 -80 -53 -80 -111 0 -111 0 -53
81 -53 81 52 79 52 79 112 0 112 0 53 -80z m840 0 l53 -80 -53 -80 -53 -80
-113 0 -114 0 -54 81 -54 82 51 78 52 79 116 0 116 0 53 -80z m840 0 l53 -80
-53 -80 -53 -80 -113 0 -113 0 -52 77 c-29 42 -52 82 -52 88 0 6 22 43 49 83
l48 72 117 0 116 0 53 -80z m840 0 l53 -80 -53 -80 -53 -80 -113 0 -113 0 -52
77 c-29 42 -52 82 -52 88 0 5 21 43 48 83 l48 72 117 0 117 0 53 -80z m840 0
l53 -80 -53 -80 -53 -80 -113 0 -113 0 -52 77 c-29 42 -52 82 -52 88 0 5 21
43 48 83 l48 72 117 0 117 0 53 -80z m840 0 l53 -80 -53 -80 -53 -80 -113 0
-113 0 -52 77 c-29 42 -52 82 -52 88 0 5 21 43 48 83 l48 72 117 0 117 0 53
-80z m840 0 l53 -80 -53 -80 -53 -80 -116 0 -116 0 -53 81 -53 81 52 79 52 79
117 0 117 0 53 -80z m839 1 l52 -79 -53 -81 -53 -81 -115 0 -115 0 -53 81 -53
81 52 79 52 79 117 0 117 0 52 -79z m-11329 -211 l53 -80 -53 -80 -53 -80
-113 0 -113 0 -52 77 c-29 42 -52 82 -52 88 0 5 21 43 48 83 l48 72 117 0 117
0 53 -80z m840 0 l53 -80 -53 -80 -53 -80 -113 0 -113 0 -52 77 c-29 42 -52
82 -52 88 0 5 21 43 48 83 l48 72 117 0 117 0 53 -80z m840 0 l53 -80 -53 -80
-53 -80 -113 0 -113 0 -52 77 c-29 42 -52 82 -52 88 0 5 21 43 48 83 l48 72
117 0 117 0 53 -80z m840 0 l53 -81 -54 -79 -54 -80 -112 0 -112 0 -52 77
c-29 42 -52 82 -52 88 0 5 21 43 48 83 l48 72 117 0 117 0 53 -80z m839 1 l52
-79 -53 -81 -53 -81 -115 0 -115 0 -53 81 -53 81 52 79 52 79 117 0 117 0 52
-79z m839 -1 l52 -80 -52 -80 -53 -80 -115 0 -115 0 -53 81 -53 81 52 79 52
79 116 0 116 0 53 -80z m840 0 l52 -80 -52 -80 -53 -80 -115 0 -115 0 -53 81
-53 81 52 79 52 79 116 0 116 0 53 -80z m832 0 l53 -80 -53 -80 -53 -80 -113
0 -114 0 -54 81 -54 82 51 78 52 79 116 0 116 0 53 -80z m840 0 l53 -80 -53
-80 -53 -80 -113 0 -114 0 -54 81 -54 82 51 78 52 79 116 0 116 0 53 -80z
m840 0 l53 -80 -53 -80 -53 -80 -113 0 -113 0 -52 77 c-29 42 -52 82 -52 88 0
5 21 43 48 83 l48 72 117 0 117 0 53 -80z m840 0 l53 -80 -53 -80 -53 -80
-113 0 -113 0 -52 77 c-29 42 -52 82 -52 88 0 5 21 43 48 83 l48 72 117 0 117
0 53 -80z m840 0 l53 -80 -53 -80 -53 -80 -113 0 -113 0 -52 77 c-29 42 -52
82 -52 88 0 5 21 43 48 83 l48 72 117 0 117 0 53 -80z m840 0 l53 -80 -53 -80
-53 -80 -113 0 -113 0 -56 81 -56 82 52 78 52 79 117 0 117 0 53 -80z m839 1
l52 -79 -53 -81 -53 -81 -115 0 -115 0 -53 81 -53 81 52 79 52 79 117 0 117 0
52 -79z m-11329 -211 l53 -80 -53 -80 -53 -80 -113 0 -113 0 -52 77 c-29 42
-52 82 -52 88 0 5 21 43 48 83 l48 72 117 0 117 0 53 -80z m840 0 l53 -80 -53
-80 -53 -80 -113 0 -113 0 -52 77 c-29 42 -52 82 -52 88 0 5 21 43 48 83 l48
72 117 0 117 0 53 -80z m840 0 l53 -80 -53 -80 -53 -80 -113 0 -113 0 -52 77
c-29 42 -52 82 -52 88 0 5 21 43 48 83 l48 72 117 0 117 0 53 -80z m840 0 l53
-80 -53 -80 -53 -80 -113 0 -113 0 -52 77 c-29 42 -52 82 -52 88 0 5 21 43 48
83 l48 72 117 0 117 0 53 -80z m839 1 l52 -79 -53 -81 -53 -81 -112 0 -112 0
-52 77 c-29 42 -52 82 -52 88 0 5 21 43 48 83 l48 72 117 0 117 0 52 -79z
m840 0 l52 -79 -53 -81 -53 -81 -115 0 -115 0 -53 81 -53 81 52 79 52 79 117
0 117 0 52 -79z m839 -1 l52 -80 -52 -80 -53 -80 -115 0 -115 0 -53 81 -53 81
52 79 52 79 116 0 116 0 53 -80z m832 0 l53 -80 -53 -80 -53 -80 -111 0 -111
0 -53 81 -53 81 52 79 52 79 112 0 112 0 53 -80z m840 0 l53 -80 -53 -80 -53
-80 -113 0 -114 0 -54 81 -54 82 51 78 52 79 116 0 116 0 53 -80z m840 0 l53
-80 -53 -80 -53 -80 -113 0 -113 0 -52 77 c-29 42 -52 82 -52 88 0 5 21 43 48
83 l48 72 117 0 117 0 53 -80z m840 0 l53 -80 -53 -80 -53 -80 -113 0 -113 0
-52 77 c-29 42 -52 82 -52 88 0 5 21 43 48 83 l48 72 117 0 117 0 53 -80z
m840 0 l53 -80 -53 -80 -53 -80 -113 0 -113 0 -52 77 c-29 42 -52 82 -52 88 0
5 21 43 48 83 l48 72 117 0 117 0 53 -80z m840 0 l53 -80 -53 -80 -53 -80
-113 0 -113 0 -52 77 c-29 42 -52 82 -52 88 0 5 21 43 48 83 l48 72 117 0 117
0 53 -80z m839 1 l52 -79 -53 -81 -53 -81 -112 0 -112 0 -52 77 c-29 42 -52
82 -52 88 0 5 21 43 48 83 l48 72 117 0 117 0 52 -79z m840 0 l52 -79 -53 -81
-53 -81 -115 0 -115 0 -53 81 -53 81 52 79 52 79 117 0 117 0 52 -79z m-11329
-211 l53 -80 -53 -80 -53 -80 -113 0 -113 0 -52 77 c-29 42 -52 82 -52 88 0 5
21 43 48 83 l48 72 117 0 117 0 53 -80z m840 0 l53 -80 -53 -80 -53 -80 -113
0 -113 0 -52 77 c-29 42 -52 82 -52 88 0 5 21 43 48 83 l48 72 117 0 117 0 53
-80z m840 0 l53 -80 -53 -80 -53 -80 -113 0 -113 0 -52 77 c-29 42 -52 82 -52
88 0 5 21 43 48 83 l48 72 117 0 117 0 53 -80z m839 1 l52 -79 -53 -81 -53
-81 -112 0 -112 0 -52 77 c-29 42 -52 82 -52 88 0 5 21 43 48 83 l48 72 117 0
117 0 52 -79z m840 0 l52 -79 -53 -81 -53 -81 -114 2 -114 3 -55 78 -54 78 52
79 53 80 117 0 117 0 52 -79z m840 0 l52 -79 -53 -81 -53 -81 -115 0 -115 0
-53 81 -53 81 52 79 52 79 117 0 117 0 52 -79z m839 -1 l52 -80 -52 -80 -53
-80 -115 0 -115 0 -53 81 -53 81 52 79 52 79 116 0 116 0 53 -80z m832 0 l53
-80 -53 -80 -53 -80 -113 0 -114 0 -55 82 -54 82 20 30 c11 17 34 52 50 79
l31 47 118 0 117 0 53 -80z m840 0 l53 -80 -53 -80 -53 -80 -113 0 -113 0 -52
77 c-29 42 -52 82 -52 88 0 5 21 43 48 83 l48 72 117 0 117 0 53 -80z m840 0
l53 -80 -53 -80 -53 -80 -113 0 -113 0 -52 77 c-29 42 -52 82 -52 88 0 5 21
43 48 83 l48 72 117 0 117 0 53 -80z m840 0 l53 -80 -53 -80 -53 -80 -113 0
-113 0 -52 77 c-29 42 -52 82 -52 88 0 5 21 43 48 83 l48 72 117 0 117 0 53
-80z m840 0 l53 -80 -53 -80 -53 -80 -113 0 -113 0 -52 77 c-29 42 -52 82 -52
88 0 5 21 43 48 83 l48 72 117 0 117 0 53 -80z m839 1 l52 -79 -53 -81 -53
-81 -112 0 -112 0 -52 77 c-29 42 -52 82 -52 88 0 5 21 43 48 83 l48 72 117 0
117 0 52 -79z m840 0 l52 -79 -53 -81 -53 -81 -112 0 -112 0 -52 77 c-29 42
-52 82 -52 88 0 5 21 43 48 83 l48 72 117 0 117 0 52 -79z m-11333 -206 l57
-85 -53 -80 -53 -80 -113 0 -113 0 -52 77 c-29 42 -52 82 -52 88 0 14 81 136
101 153 10 8 51 12 119 12 l103 0 56 -85z m840 0 l57 -85 -53 -80 -53 -80
-113 0 -113 0 -52 77 c-29 42 -52 82 -52 88 0 14 81 136 101 153 10 8 51 12
119 12 l103 0 56 -85z m841 0 l56 -85 -54 -80 -54 -80 -112 0 -112 0 -52 77
c-29 42 -52 82 -52 88 0 14 81 136 101 153 10 8 51 12 119 12 l103 0 57 -85z
m839 1 l56 -84 -54 -81 -53 -81 -112 0 -112 0 -52 77 c-29 42 -52 82 -52 88 0
14 81 136 101 153 10 8 51 12 119 12 l103 0 56 -84z m840 0 l56 -84 -54 -81
-53 -81 -112 0 -112 0 -52 77 c-29 42 -52 82 -52 88 0 14 81 136 101 153 10 8
51 12 119 12 l103 0 56 -84z m840 0 l56 -84 -54 -81 -53 -81 -115 0 -115 0
-53 81 -53 81 51 78 c29 44 57 81 63 84 7 2 58 5 114 5 l103 1 56 -84z m840 0
l56 -84 -54 -81 -53 -81 -115 0 -115 0 -53 81 -54 81 56 84 56 84 110 0 110 0
56 -84z m831 4 c29 -41 52 -79 53 -84 0 -6 -23 -45 -51 -88 l-52 -78 -111 0
-111 0 -50 77 c-27 42 -51 80 -53 84 -3 8 66 116 96 152 14 15 30 17 121 15
l106 -3 52 -75z m839 -5 l57 -85 -53 -80 -53 -80 -113 0 -113 0 -52 77 c-29
42 -52 82 -52 88 0 14 81 136 101 153 10 8 51 12 119 12 l103 0 56 -85z m840
0 l57 -85 -53 -80 -53 -80 -113 0 -113 0 -52 77 c-29 42 -52 82 -52 88 0 14
81 136 101 153 10 8 51 12 119 12 l103 0 56 -85z m840 0 l57 -85 -53 -80 -53
-80 -113 0 -113 0 -52 77 c-29 42 -52 82 -52 88 0 14 81 136 101 153 10 8 51
12 119 12 l103 0 56 -85z m840 0 l57 -85 -53 -80 -53 -80 -113 0 -113 0 -52
77 c-29 42 -52 82 -52 88 0 14 81 136 101 153 10 8 51 12 119 12 l103 0 56
-85z m840 1 l56 -84 -54 -81 -53 -81 -112 0 -112 0 -52 77 c-29 42 -52 82 -52
88 0 14 81 136 101 153 10 8 51 12 119 12 l103 0 56 -84z m840 0 l56 -84 -54
-81 -53 -81 -112 0 -112 0 -52 77 c-29 42 -52 82 -52 88 0 14 81 136 101 153
10 8 51 12 119 12 l103 0 56 -84z m840 0 l56 -84 -54 -81 -53 -81 -112 0 -112
0 -52 77 c-29 42 -52 82 -52 88 0 14 81 136 101 153 10 8 51 12 119 12 l103 0
56 -84z m-11327 -215 l54 -81 -53 -80 -53 -80 -113 0 -113 0 -52 77 c-29 42
-52 82 -52 88 0 13 80 135 98 150 7 6 60 9 121 8 l109 -1 54 -81z m840 0 l54
-81 -53 -80 -53 -80 -113 0 -113 0 -52 77 c-29 42 -52 82 -52 88 0 13 80 135
98 150 7 6 60 9 121 8 l109 -1 54 -81z m840 0 l52 -79 -53 -81 -53 -81 -112 0
-112 0 -49 73 c-27 39 -51 77 -55 83 -3 6 16 44 43 85 l50 74 112 5 c62 3 116
4 119 3 3 -1 30 -38 58 -82z m840 0 l52 -79 -53 -81 -53 -81 -112 0 -112 0
-49 73 c-27 39 -51 77 -55 83 -3 6 16 44 43 85 l50 74 112 5 c62 3 116 4 119
3 3 -1 30 -38 58 -82z m840 0 l52 -79 -53 -81 -53 -81 -112 0 -112 0 -49 73
c-27 39 -51 77 -55 83 -3 6 16 44 43 85 l50 74 112 5 c62 3 116 4 119 3 3 -1
30 -38 58 -82z m840 0 l52 -79 -53 -81 -53 -81 -112 0 -112 0 -49 73 c-27 39
-51 77 -55 83 -3 6 16 44 43 85 l50 74 112 5 c62 3 116 4 119 3 3 -1 30 -38
58 -82z m840 -3 l51 -78 -52 -80 -53 -80 -115 0 -115 0 -50 77 c-27 42 -51 79
-53 84 -2 4 20 40 48 81 l50 73 113 5 c61 3 115 3 118 0 4 -3 29 -40 58 -82z
m830 3 l54 -81 -53 -80 -53 -80 -113 0 -113 0 -52 77 c-29 42 -52 82 -52 88 0
11 91 147 103 155 4 3 57 4 117 3 l108 -1 54 -81z m840 0 l54 -81 -53 -80 -53
-80 -113 0 -113 0 -52 77 c-29 42 -52 82 -52 88 0 13 80 135 98 150 7 6 60 9
121 8 l109 -1 54 -81z m840 0 l54 -81 -53 -80 -53 -80 -113 0 -113 0 -52 77
c-29 42 -52 82 -52 88 0 13 80 135 98 150 7 6 60 9 121 8 l109 -1 54 -81z
m840 0 l54 -81 -53 -80 -53 -80 -113 0 -113 0 -52 77 c-29 42 -52 82 -52 88 0
13 80 135 98 150 7 6 60 9 121 8 l109 -1 54 -81z m840 0 l54 -81 -53 -80 -53
-80 -113 0 -113 0 -52 77 c-29 42 -52 82 -52 88 0 13 80 135 98 150 7 6 60 9
121 8 l109 -1 54 -81z m840 0 l52 -79 -53 -81 -53 -81 -112 0 -112 0 -49 73
c-27 39 -51 77 -55 83 -3 6 16 44 43 85 l50 74 112 5 c62 3 116 4 119 3 3 -1
30 -38 58 -82z m840 0 l52 -79 -53 -81 -53 -81 -112 0 -112 0 -49 73 c-27 39
-51 77 -55 83 -3 6 16 44 43 85 l50 74 112 5 c62 3 116 4 119 3 3 -1 30 -38
58 -82z m-11330 -210 l54 -81 -53 -80 -53 -80 -113 0 -113 0 -52 77 c-29 42
-52 82 -52 88 0 13 80 135 98 150 7 6 60 9 121 8 l109 -1 54 -81z m840 0 l54
-81 -53 -80 -53 -80 -113 0 -113 0 -52 77 c-29 42 -52 82 -52 88 0 13 80 135
98 150 7 6 60 9 121 8 l109 -1 54 -81z m840 0 l54 -81 -53 -80 -53 -80 -113 0
-113 0 -52 77 c-29 42 -52 82 -52 88 0 13 80 135 98 150 7 6 60 9 121 8 l109
-1 54 -81z m839 1 l54 -80 -54 -81 -53 -81 -112 0 -112 0 -52 77 c-29 42 -52
82 -52 88 0 13 80 135 98 150 7 6 60 9 121 8 l109 -1 53 -80z m840 0 l54 -80
-54 -81 -53 -81 -112 0 -112 0 -52 77 c-29 42 -52 82 -52 88 0 13 80 135 98
150 7 6 60 9 121 8 l109 -1 53 -80z m841 -1 l52 -79 -53 -81 -53 -81 -112 0
-112 0 -49 73 c-27 39 -51 77 -55 83 -3 6 16 44 43 85 l50 74 112 5 c62 3 116
4 119 3 3 -1 30 -38 58 -82z m840 0 l52 -79 -53 -81 -53 -81 -115 2 -115 3
-53 78 -54 78 52 79 52 79 112 3 c61 2 114 2 117 1 3 -1 30 -38 58 -82z m831
4 c28 -41 50 -77 50 -81 0 -5 -23 -43 -51 -86 l-52 -78 -111 0 -111 0 -50 77
c-27 42 -51 80 -53 84 -2 4 20 42 47 83 l51 75 108 3 c59 2 110 2 115 0 4 -2
30 -37 57 -77z m839 -4 l54 -81 -53 -80 -53 -80 -113 0 -113 0 -52 77 c-29 42
-52 82 -52 88 0 13 80 135 98 150 7 6 60 9 121 8 l109 -1 54 -81z m840 0 l54
-81 -53 -80 -53 -80 -113 0 -113 0 -52 77 c-29 42 -52 82 -52 88 0 13 80 135
98 150 7 6 60 9 121 8 l109 -1 54 -81z m840 0 l54 -81 -53 -80 -53 -80 -113 0
-113 0 -52 77 c-29 42 -52 82 -52 88 0 13 80 135 98 150 7 6 60 9 121 8 l109
-1 54 -81z m839 1 l54 -80 -54 -81 -53 -81 -112 0 -112 0 -52 77 c-29 42 -52
82 -52 88 0 13 80 135 98 150 7 6 60 9 121 8 l109 -1 53 -80z m840 0 l54 -80
-54 -81 -53 -81 -112 0 -112 0 -52 77 c-29 42 -52 82 -52 88 0 13 80 135 98
150 7 6 60 9 121 8 l109 -1 53 -80z m840 0 l54 -80 -54 -81 -53 -81 -112 0
-112 0 -52 77 c-29 42 -52 82 -52 88 0 13 80 135 98 150 7 6 60 9 121 8 l109
-1 53 -80z m841 -1 l52 -79 -53 -81 -53 -81 -112 0 -112 0 -49 73 c-27 39 -51
77 -55 83 -3 6 16 44 43 85 l50 74 112 5 c62 3 116 4 119 3 3 -1 30 -38 58
-82z m-11333 -206 l57 -85 -53 -80 -53 -80 -113 0 -113 0 -52 77 c-29 42 -52
82 -52 88 0 14 81 136 101 153 10 8 51 12 119 12 l103 0 56 -85z m840 1 l56
-84 -54 -81 -53 -81 -112 0 -112 0 -52 77 c-29 42 -52 82 -52 88 0 14 81 136
101 153 10 8 51 12 119 12 l103 0 56 -84z m840 0 l56 -84 -54 -81 -53 -81
-112 0 -112 0 -52 77 c-29 42 -52 82 -52 88 0 14 81 136 101 153 10 8 51 12
119 12 l103 0 56 -84z m840 0 l56 -84 -54 -81 -53 -81 -112 0 -112 0 -52 77
c-29 42 -52 82 -52 88 0 14 81 136 101 153 10 8 51 12 119 12 l103 0 56 -84z
m840 0 l56 -84 -54 -81 -53 -81 -112 0 -112 0 -52 77 c-29 42 -52 82 -52 88 0
14 81 136 101 153 10 8 51 12 119 12 l103 0 56 -84z m840 0 l56 -84 -54 -81
-53 -81 -112 0 -112 0 -55 81 c-31 44 -56 83 -56 85 0 12 101 153 112 157 7 3
59 6 115 6 l103 1 56 -84z m840 0 l56 -84 -54 -81 -53 -81 -115 0 -115 0 -50
77 c-27 42 -51 80 -53 84 -4 11 94 156 110 162 7 3 59 6 115 6 l103 1 56 -84z
m831 4 c29 -41 52 -79 53 -84 0 -6 -23 -45 -51 -88 l-52 -78 -113 0 -113 0
-52 77 c-29 42 -52 82 -52 88 0 15 81 136 102 153 11 9 47 12 121 10 l105 -3
52 -75z m840 0 c29 -41 52 -79 53 -84 0 -6 -23 -45 -51 -88 l-52 -78 -113 0
-113 0 -52 77 c-29 42 -52 82 -52 88 0 15 81 136 102 153 11 9 47 12 121 10
l105 -3 52 -75z m839 -5 l57 -85 -53 -80 -53 -80 -113 0 -113 0 -52 77 c-29
42 -52 82 -52 88 0 14 81 136 101 153 10 8 51 12 119 12 l103 0 56 -85z m840
0 l56 -84 -53 -80 -54 -80 -112 -1 -112 0 -52 77 c-29 42 -52 82 -52 88 0 14
81 136 101 153 10 8 51 12 119 12 l103 0 56 -85z m840 1 l56 -84 -54 -81 -53
-81 -112 0 -112 0 -52 77 c-29 42 -52 82 -52 88 0 14 81 136 101 153 10 8 51
12 119 12 l103 0 56 -84z m840 0 l56 -84 -54 -81 -53 -81 -112 0 -112 0 -52
77 c-29 42 -52 82 -52 88 0 14 81 136 101 153 10 8 51 12 119 12 l103 0 56
-84z m840 0 l56 -84 -54 -81 -53 -81 -112 0 -112 0 -52 77 c-29 42 -52 82 -52
88 0 14 81 136 101 153 10 8 51 12 119 12 l103 0 56 -84z"/>
</g>
</svg>
