<?xml version="1.0" encoding="UTF-8"?>
<svg id="Layer_1" data-name="Layer 1" xmlns="http://www.w3.org/2000/svg" width="1200px" viewBox="0 0 479.18 35.85">
  <defs>
    <style>
      .cls-1 {
        fill: #e5ce8a;
      }
    </style>
  </defs>
  <path class="cls-1" d="m45.01.04H9.26l-2.1,8.31h5.47l-5.47,19.17H2.1l-2.1,8.31h35.75c9.67,0,11.76-8.33,11.76-8.33l5.22-20.03C54.82-.96,45.01.04,45.01.04Zm-8.06,9.78c-.63,2.38-4.14,16.28-4.14,16.28,0,0-.77,1.41-3.37,1.41h-12.19l6.06-4.04,2.89-11.74-3.76-3.39h12.48s2.66-.91,2.03,1.48ZM80,.04h20.25l-7.43,28.41c-2.21,8.41-12.06,7.37-12.06,7.37h-20.19c-10.1,0-8.01-8-8.01-8l1.05-3.79-3.97-3.54h20.16l-1.04,3.65s-1.45,3.65,3.88,3.65,6.22-3.98,6.22-3.98l3.13-12.17,5.93-3.3h-10.23L80,.04Zm100.84,20.44l1.06-5.11h10.08l-1.01,5.11h-10.12Zm159.58-3.48s4.97.11,3.41,6.39l-3.41,12.42h-14.86l3.59-13.71s.44-1.62-1.62-1.62h-7.85l-4.21,15.33h-20.14l1.92-8.31h5.19l4.16-15.33h15.18l-1.09,3.2h7.4s2.68-.15,3.29-2.6l.94-2.99s.52-1.44-1.98-1.44h-27.72L304.8.04h35.2s10.09-.96,8.01,7.45l-1.04,3.73s-1.5,5.81-6.54,5.79Zm-161.65,10.5h20.05l-1.96,8.31h-30.28c-10.18,0-8.1-7.61-8.1-7.61l4.33-16.03h15.07l-3.13,11.87c-1.04,4.21,4.02,3.46,4.02,3.46Zm118.47-19.17h-15l-7.01,27.47h-15.37l6.31-24.25,6.13-3.22h-20.34L254.15.06l-6.07,3.18-6.37,24.24c-2.21,8.41-12.06,8.33-12.06,8.33h-20.19c-10.1,0-8.01-8-8.01-8l1.04-3.79-3.97-3.54h20.16l-1.04,3.65s-1.45,3.65,3.88,3.65,6.22-3.98,6.22-3.98l3.13-12.17,5.93-3.3h-10.24L228.89.04h75.63l-5.95,4.15-1.34,4.15Zm70.8,19.17h4.91l-1.96,8.31h-25.24l2.1-8.31h9.95l-3.87-3.27,4.02-15.89h-4.89L355.14.04h30.3l-6.12,4.2-1.2,4.11h-9.94l4.01,3.27-4.16,15.89Zm110.9-20.06l-4.93,20.03c-2.09,8.41-12.18,8.33-12.18,8.33h-25.52c-9.74,0-7.73-7.61-7.73-7.61l4.22-16.03h15.1l-3.13,11.87-6.08,3.46h15c4.92,0,6.22-3.73,6.22-3.73l3.13-12.14c.93-3.77-4.16-3.3-4.16-3.3h-24.96l1.91-8.28-6.04,3.14-8.35,32.61h-15.14l-9.92-21.03-5.22,21.03h-15.14L385.42.04h15.14l9.92,21.03L415.56.04h55.66c10.1,0,7.71,7.41,7.71,7.41ZM159.77,3.2l-8.35,32.61h-15.14l-9.92-21.03-5.22,21.03h-20.19l6.06-3.17L115.4.04h15.13l9.92,21.03L145.53.04h65.76l-7.29,8.31h-40.38L165.7.12l-5.93,3.08Z"/>
</svg>