<?xml version="1.0" encoding="UTF-8"?><svg id="a" xmlns="http://www.w3.org/2000/svg" width="874.76pt"
   height="242.7pt"
   viewBox="0 0 874.76 242.7"><path d="m202.39,92.56L49.87,4.5C27.7-8.29,0,7.7,0,33.29v176.12c0,25.59,27.7,41.59,49.87,28.79l152.52-88.06c22.16-12.8,22.16-44.78,0-57.58Zm-48.35,62.18H38.58l-.8-.4c7.75-21.91,14.57-42.36,20.45-61.34v-2.41c0-2.74-2.14-5.81-6.41-9.22v-.4h34.88c4.48,0,7.15,2.81,8.02,8.42,0,3.07-4.81,18.44-14.43,46.1v.8c0,1.2,1.47,2.14,4.41,2.81h41.69c11.96,0,21.18,4.95,27.66,14.83v.8Z" style="fill:#e5ce8a;"/><path d="m394.02,80.97h-145.93v.4c4.27,3.68,6.41,7.28,6.41,10.82v.4c-2.41,8.22-9.22,28.66-20.45,61.34,0,.53.27.8.8.8h34.48c.8-1.07,7.48-20.45,20.05-58.13h28.46c-1.6,5.41-8.02,24.52-19.24,57.33,0,.53.27.8.8.8h34.48c.8-1.07,7.48-20.45,20.05-58.13h22.85c2.14,0,3.21,1.07,3.21,3.21s-5.88,20.18-17.64,54.12c0,.53.27.8.8.8h34.48c.8-.6,7.08-18.91,18.84-54.92v-2.41c0-1.87-.27-3.34-.8-4.41-3.41-8.02-10.62-12.03-21.65-12.03Z" style="fill:#e5ce8a;"/><path d="m548.5,80.97h-32.87v.8c4.54,2.21,6.82,5.68,6.82,10.42v.4c0,2.74-2.94,12.36-8.82,28.86-2.34,11.49-6.08,17.24-11.23,17.24h-38.49c-1.6,0-2.81-.93-3.61-2.81,0-1.2.67-4.01,2-8.42,7.75-22.58,11.63-34.74,11.63-36.48v-1.6c0-5.61-4.54-8.42-13.63-8.42h-30.47v.8c4.81,2.34,7.22,5.28,7.22,8.82v3.21c-9.89,30.67-14.83,46.44-14.83,47.31,0,9.09,13.1,13.63,39.29,13.63h30.87c26.53,0,43.1-4.01,49.71-12.03,2.14-3.01,7.88-19.98,17.24-50.91v-3.61c-1.8-4.81-5.41-7.22-10.83-7.22Z" style="fill:#e5ce8a;"/><path d="m646.36,109.84h-32.47c-4.01,0-6.01-1.2-6.01-3.61.13-1.94.53-3.27,1.2-4.01,0-3.47,2.41-5.21,7.22-5.21h40.49c17.24,0,30.07-5.21,38.49-15.64v-.4h-78.18c-19.91,0-33.41,3.74-40.49,11.23-5.08,10.09-7.62,17.17-7.62,21.25,0,1.34.27,2,.8,2,2.14,5.55,10.56,8.89,25.26,10.02h32.87c2.94,0,5.34.53,7.22,1.6,0,.54-.53,2.54-1.6,6.01-1,3.74-3.68,5.61-8.02,5.61h-16.84c-10.96,0-26.33-.13-46.1-.4,0,.27-.13.4-.4.4,6.88,8.22,11.69,13.56,14.43,16.04h46.1c20.18,0,33.54-3.07,40.09-9.22,2.67,0,6.01-7.35,10.02-22.05v-1.2c0-7.02-8.82-11.16-26.46-12.43Z" style="fill:#e5ce8a;"/><path d="m734.3,80.97h-34.88v.4c4.28,3.41,6.41,6.48,6.41,9.22v2.41c-5.88,18.98-12.7,39.42-20.45,61.34l.8.4h34.48c.67-.6,2.81-6.21,6.41-16.84,10.16-29.27,15.24-45.43,15.24-48.51-.87-5.61-3.54-8.42-8.02-8.42Z" style="fill:#e5ce8a;"/><path d="m753.28,80.97v.8c4.81,2.34,7.22,5.28,7.22,8.82v3.21c-9.89,30.67-14.83,46.44-14.83,47.31,0,9.09,13.1,13.63,39.29,13.63h70.96l.8-.4c-1.94-3.34-4.21-6.15-6.82-8.42-3.88-4.81-14.97-7.22-33.28-7.22h-29.27c-1.6,0-2.81-.93-3.61-2.81,0-2.14,2.94-11.36,8.82-27.66,1.27-7.75,4.07-11.63,8.42-11.63h35.68c16.1,0,28.8-5.08,38.09-15.23v-.4h-121.47Z" style="fill:#e5ce8a;"/></svg>