<?xml version="1.0" encoding="UTF-8" standalone="no"?>
<svg
   version="1.1"
   width="592.43597pt"
   height="262.76599pt"
   viewBox="0 0 592.43597 262.76599"
   id="svg12"
   sodipodi:docname="Radio_Record_logo_new_wb.svg"
   inkscape:version="1.2.2 (732a01da63, 2022-12-09)"
   xmlns:inkscape="http://www.inkscape.org/namespaces/inkscape"
   xmlns:sodipodi="http://sodipodi.sourceforge.net/DTD/sodipodi-0.dtd"
   xmlns="http://www.w3.org/2000/svg"
   xmlns:svg="http://www.w3.org/2000/svg">
  <sodipodi:namedview
     id="namedview14"
     pagecolor="#ffffff"
     bordercolor="#000000"
     borderopacity="0.25"
     inkscape:showpageshadow="2"
     inkscape:pageopacity="0.0"
     inkscape:pagecheckerboard="0"
     inkscape:deskcolor="#d1d1d1"
     inkscape:document-units="pt"
     showgrid="false"
     inkscape:zoom="1.044958"
     inkscape:cx="339.24809"
     inkscape:cy="100.48251"
     inkscape:window-width="1920"
     inkscape:window-height="1009"
     inkscape:window-x="-8"
     inkscape:window-y="-8"
     inkscape:window-maximized="1"
     inkscape:current-layer="svg12" />
  <defs
     id="defs5">
    <clipPath
       id="clip_0">
      <path
         transform="matrix(1,0,0,-1,0,595)"
         d="M 0,595 H 842 V 0 H 0 Z"
         id="path2" />
    </clipPath>
  </defs>
  <g
     id="layer_1"
     data-name="Layer 1"
     transform="translate(-124.7819,-145.4052)">
    <g
       clip-path="url(#clip_0)"
       id="g9">
      <path
         transform="matrix(1,0,0,-1,414.3619,260.6932)"
         d="m 0,0 h -34.918 l -10e-4,-0.004 h -19.897 c -11.55,0.19 -19.02,-4.067 -22.479,-14.575 l -9.251,-30.181 c -2.294,-7.875 -7.348,-19.374 1.228,-23.649 3.457,-1.725 8.367,-2.184 12.939,-2.146 19.862,0 27.757,0.004 47.619,0.004 v 0.001 h 3.73 c 6.164,-0.193 13.243,5.545 14.612,10.932 l 4.268,14.89 h -23.54 l -2.503,-8.624 h -30.241 l 10.947,36.144 h 13.879 l 10e-4,0.005 h 14.761 l -2.716,-9.021 H 2.984 l 4.997,15.292 C 9.88,-5.545 6.281,0.193 0,0 m 127.057,-118.163 c -0.198,-1.337 -0.518,-2.964 -0.98,-4.889 l -1.211,-5.149 c -0.443,-1.926 -0.887,-3.552 -1.317,-4.889 -0.441,-1.337 -0.945,-2.455 -1.503,-3.353 -0.561,-0.908 -1.242,-1.666 -2.054,-2.295 -0.793,-0.608 -1.659,-1.067 -2.584,-1.387 -0.598,-0.199 -1.265,-0.357 -2.002,-0.472 -0.404,-0.062 -0.83,-0.111 -1.276,-0.146 -1.255,-0.109 -2.802,-0.159 -4.607,-0.15 h -5.928 l 7.178,30.533 h 5.928 c 1.809,0.009 3.332,-0.04 4.536,-0.15 1.214,-0.11 2.206,-0.32 2.982,-0.639 0.776,-0.318 1.419,-0.798 1.923,-1.427 0.52,-0.608 0.847,-1.356 0.983,-2.254 0.139,-0.889 0.117,-2.006 -0.068,-3.333 m 4.416,10.556 c -0.964,0.869 -2.055,1.547 -3.284,2.035 -1.232,0.49 -2.662,0.839 -4.296,1.038 -1.648,0.19 -3.558,0.29 -5.758,0.28 h -10.657 c -0.724,0 -1.311,-0.17 -1.767,-0.499 -0.447,-0.339 -0.756,-0.848 -0.918,-1.536 l -9.57,-40.71 h 12.865 c 2.193,-0.01 4.151,0.09 5.887,0.28 0.488,0.056 0.965,0.124 1.431,0.204 1.188,0.203 2.305,0.482 3.353,0.832 1.46,0.489 2.87,1.168 4.242,2.036 2.094,1.308 3.87,3.232 5.317,5.767 1.449,2.545 2.639,5.767 3.548,9.679 l 1.21,5.149 c 0.93,3.91 1.256,7.133 1.003,9.678 -0.256,2.534 -1.127,4.46 -2.606,5.767 m -157.523,2.854 c -0.426,-0.339 -0.725,-0.848 -0.887,-1.536 l -7.856,-33.422 -1.713,-7.288 h 25.223 c 0.694,0 1.26,0.169 1.685,0.499 0.425,0.339 0.714,0.848 0.876,1.536 l 0.957,4.071 h -20.369 l 3.111,13.231 h 17.151 c 0.725,0 1.303,0.18 1.744,0.529 0.43,0.359 0.731,0.877 0.893,1.566 l 0.943,4.011 h -19.296 l 2.631,11.196 h 18.288 c 0.693,0 1.258,0.169 1.682,0.498 0.426,0.34 0.716,0.848 0.878,1.537 l 0.956,4.071 h -25.161 c -0.726,0 -1.301,-0.17 -1.736,-0.499 m 208.104,-10.596 c -0.036,-0.779 -0.147,-1.607 -0.334,-2.495 -0.116,-0.628 -0.261,-1.377 -0.445,-2.245 -0.171,-0.868 -0.393,-1.856 -0.653,-2.963 l -1.211,-5.149 c -0.341,-1.447 -0.644,-2.694 -0.922,-3.741 -0.269,-1.058 -0.55,-1.986 -0.824,-2.794 -0.284,-0.798 -0.597,-1.558 -0.954,-2.265 -0.283,-0.539 -0.551,-1.008 -0.811,-1.397 -0.251,-0.399 -0.508,-0.729 -0.76,-0.998 -0.317,-0.32 -0.721,-0.608 -1.234,-0.869 -0.514,-0.259 -1.066,-0.468 -1.684,-0.637 -0.618,-0.171 -1.234,-0.29 -1.869,-0.35 -0.449,-0.03 -0.992,-0.06 -1.618,-0.08 -0.637,-0.03 -1.343,-0.04 -2.131,-0.04 -1.062,0 -1.955,0 -2.684,0.03 -0.72,0.02 -1.358,0.08 -1.892,0.179 -0.541,0.111 -1.06,0.27 -1.561,0.51 -0.369,0.179 -0.667,0.378 -0.913,0.588 -0.233,0.21 -0.424,0.43 -0.557,0.669 -0.154,0.33 -0.266,0.789 -0.315,1.387 -0.06,0.599 -0.063,1.297 -0.016,2.076 0.045,0.777 0.133,1.596 0.274,2.464 0.123,0.658 0.283,1.427 0.487,2.294 0.195,0.879 0.428,1.867 0.688,2.974 l 1.211,5.149 c 0.341,1.447 0.644,2.694 0.91,3.741 0.281,1.058 0.551,1.986 0.825,2.794 0.261,0.798 0.566,1.556 0.9,2.266 0.291,0.568 0.561,1.047 0.814,1.446 0.25,0.389 0.482,0.708 0.696,0.948 0.337,0.319 0.764,0.618 1.283,0.898 0.516,0.269 1.081,0.489 1.688,0.658 0.61,0.18 1.212,0.28 1.816,0.299 l 0.095,0.006 c 0.429,0.029 0.94,0.055 1.521,0.075 0.637,0.029 1.344,0.039 2.132,0.039 1.061,0 1.963,-0.01 2.702,-0.039 0.74,-0.03 1.383,-0.111 1.924,-0.221 0.543,-0.109 1.038,-0.278 1.497,-0.518 0.375,-0.149 0.69,-0.329 0.946,-0.539 0.255,-0.209 0.43,-0.449 0.525,-0.717 0.175,-0.33 0.308,-0.789 0.389,-1.378 0.084,-0.589 0.1,-1.278 0.065,-2.055 m 2.872,10.077 c -1.014,0.508 -2.313,0.888 -3.895,1.128 -1.581,0.249 -3.445,0.368 -5.589,0.368 -1.865,0 -3.561,-0.09 -5.089,-0.278 l -0.673,-0.09 c -1.696,-0.24 -3.174,-0.62 -4.426,-1.128 -1.249,-0.478 -2.404,-1.188 -3.473,-2.115 -1.071,-0.938 -2.061,-2.106 -2.959,-3.513 -0.892,-1.377 -1.713,-3.083 -2.472,-5.108 -0.762,-2.036 -1.461,-4.38 -2.087,-7.044 l -1.211,-5.149 c -0.837,-3.562 -1.284,-6.535 -1.347,-8.95 -0.061,-2.404 0.244,-4.33 0.916,-5.767 0.67,-1.437 1.687,-2.475 3.048,-3.124 2.044,-0.957 5.212,-1.436 9.5,-1.436 1.906,0 3.633,0.095 5.184,0.283 1.94,0.237 3.604,0.622 4.99,1.153 1.255,0.509 2.422,1.228 3.494,2.166 1.069,0.927 2.046,2.086 2.937,3.461 1.797,2.815 3.321,6.886 4.574,12.214 l 1.21,5.149 c 0.837,3.561 1.284,6.535 1.347,8.95 0.06,2.404 -0.246,4.32 -0.919,5.747 -0.672,1.437 -1.693,2.455 -3.06,3.083 m -39.898,0.519 c -0.426,-0.339 -0.725,-0.848 -0.887,-1.536 l -9.57,-40.71 h 4.793 c 0.726,0 1.301,0.169 1.736,0.499 0.426,0.339 0.725,0.848 0.886,1.536 l 9.571,40.71 h -4.794 c -0.725,0 -1.301,-0.17 -1.735,-0.499 m -220.736,0 c -0.448,-0.339 -0.756,-0.848 -0.918,-1.536 l -6.966,-29.635 -11.048,28.916 c -0.234,0.709 -0.522,1.267 -0.857,1.676 -0.337,0.399 -0.807,0.679 -1.422,0.839 -0.602,0.169 -1.445,0.249 -2.498,0.239 h -4.035 l -10.049,-42.745 h 4.856 c 0.694,0 1.258,0.169 1.684,0.499 0.426,0.339 0.714,0.848 0.876,1.536 l 6.981,29.694 11.032,-28.976 c 0.244,-0.708 0.534,-1.267 0.879,-1.675 0.347,-0.399 0.828,-0.679 1.442,-0.838 0.623,-0.171 1.455,-0.25 2.519,-0.24 h 4.035 l 10.049,42.745 h -4.792 c -0.726,0 -1.313,-0.17 -1.768,-0.499 m 141.654,-25.963 7.441,13.685 3.887,7.149 h 2.082 l 1.472,-20.834 z m 20.019,23.468 c -0.065,0.659 -0.191,1.198 -0.388,1.607 -0.207,0.419 -0.489,0.699 -0.864,0.848 -0.335,0.179 -0.871,0.319 -1.615,0.409 -0.736,0.09 -1.694,0.13 -2.859,0.13 h -1.262 c -2.271,0 -3.827,-0.18 -4.668,-0.539 -0.309,-0.112 -0.618,-0.297 -0.922,-0.557 -0.103,-0.089 -0.205,-0.185 -0.307,-0.291 -0.411,-0.409 -0.8,-0.948 -1.176,-1.607 l -18.769,-33.167 c -0.27,-0.478 -0.521,-1.007 -0.739,-1.575 -0.215,-0.541 -0.395,-1.127 -0.55,-1.763 l -0.031,-0.133 -0.731,-3.113 h 2.647 c 0.757,0 1.399,0.05 1.914,0.14 0.528,0.1 0.921,0.249 1.191,0.458 0.539,0.419 1.178,1.257 1.915,2.515 l 4.121,7.604 h 18.413 l 0.546,-7.604 c 0.052,-0.848 0.173,-1.496 0.36,-1.956 0.188,-0.449 0.526,-0.758 1.023,-0.917 0.497,-0.171 1.245,-0.25 2.235,-0.24 h 2.649 l 0.733,3.113 c 0.147,0.628 0.245,1.227 0.287,1.806 0.039,0.568 0.023,1.128 -0.039,1.665 z m -41.11,-10.716 c -0.372,-1.586 -0.787,-2.903 -1.253,-3.941 -0.456,-1.047 -0.95,-1.806 -1.472,-2.285 -0.515,-0.448 -1.32,-0.788 -2.428,-1.028 -0.997,-0.209 -2.255,-0.326 -3.761,-0.345 l -0.44,-0.004 h -9.08 l 3.575,15.207 h 9.079 c 1.703,0 3.051,-0.121 4.035,-0.359 0.996,-0.24 1.637,-0.599 1.933,-1.078 0.304,-0.449 0.444,-1.198 0.412,-2.226 -0.022,-1.037 -0.226,-2.354 -0.6,-3.941 m 6.999,0 c 0.584,2.485 0.829,4.599 0.736,6.347 -0.07,1.277 -0.317,2.367 -0.744,3.27 -0.157,0.332 -0.337,0.639 -0.542,0.92 -0.73,1.048 -1.996,1.836 -3.793,2.375 -1.798,0.528 -4.13,0.798 -7.001,0.798 H 26.637 c -0.725,0 -1.3,-0.17 -1.736,-0.499 -0.426,-0.339 -0.724,-0.848 -0.886,-1.536 l -9.57,-40.71 h 4.856 c 0.693,0 1.259,0.169 1.683,0.499 0.426,0.339 0.715,0.848 0.877,1.536 l 3.124,13.291 h 7.882 l 3.074,-9.285 1.424,-4.305 c 0.214,-0.569 0.565,-0.998 1.062,-1.297 0.489,-0.29 1.116,-0.439 1.873,-0.439 h 3.152 l 0.592,2.515 c 0.112,0.478 0.129,1.037 0.056,1.665 -0.082,0.639 -0.26,1.357 -0.542,2.166 l -3.529,9.399 c 2.301,0.449 4.201,1.198 5.729,2.245 1.521,1.058 2.759,2.485 3.721,4.29 0.965,1.789 1.745,4.035 2.367,6.724 z m -86.647,8.216 c 0.358,0.335 0.611,0.807 0.756,1.423 l 0.957,4.071 h -4.791 c -2.418,0 -4.569,-0.03 -6.427,-0.111 -1.866,-0.069 -3.549,-0.209 -5.059,-0.418 -1.51,-0.209 -2.947,-0.509 -4.302,-0.908 -1.042,-0.27 -1.965,-0.579 -2.785,-0.938 -0.83,-0.359 -1.556,-0.769 -2.199,-1.218 -0.81,-0.588 -1.599,-1.347 -2.347,-2.295 -0.757,-0.937 -1.459,-2.004 -2.101,-3.211 -0.641,-1.209 -1.197,-2.506 -1.671,-3.893 -0.333,-1.017 -0.681,-2.185 -1.052,-3.492 -0.363,-1.316 -0.734,-2.763 -1.106,-4.349 l -0.24,-1.019 c -0.5,-2.125 -0.893,-3.981 -1.19,-5.597 -0.283,-1.607 -0.452,-3.044 -0.508,-4.311 -0.07,-1.277 -0.009,-2.454 0.171,-3.562 0.15,-0.839 0.365,-1.576 0.66,-2.205 0.279,-0.638 0.626,-1.178 1.024,-1.627 0.57,-0.577 1.35,-1.097 2.339,-1.546 0.997,-0.449 2.148,-0.828 3.473,-1.137 1.317,-0.3 2.755,-0.528 4.31,-0.668 1.145,-0.091 2.467,-0.15 3.97,-0.19 1.496,-0.031 3.162,-0.05 4.991,-0.05 h 4.791 l 0.958,4.071 c 0.162,0.689 0.103,1.197 -0.164,1.537 -0.279,0.328 -0.777,0.498 -1.502,0.498 h -7.313 c -0.656,0.03 -1.342,0.06 -2.057,0.11 -0.715,0.04 -1.457,0.1 -2.224,0.19 -0.957,0.129 -1.737,0.259 -2.328,0.378 -0.589,0.131 -1.088,0.29 -1.502,0.499 -0.415,0.199 -0.831,0.489 -1.248,0.859 -0.402,0.389 -0.692,0.768 -0.867,1.147 -0.172,0.379 -0.266,0.828 -0.294,1.338 -0.028,0.508 -0.033,1.157 -0.005,1.945 0.015,0.778 0.092,1.556 0.212,2.335 0.118,0.768 0.288,1.627 0.5,2.575 0.225,0.957 0.493,2.095 0.802,3.411 l 0.24,1.019 c 0.309,1.316 0.576,2.454 0.799,3.401 0.235,0.948 0.467,1.806 0.71,2.575 0.243,0.758 0.529,1.527 0.875,2.285 0.342,0.789 0.652,1.437 0.92,1.945 0.266,0.509 0.568,0.949 0.917,1.317 0.351,0.37 0.817,0.738 1.397,1.108 0.596,0.39 1.152,0.699 1.666,0.918 0.515,0.22 1.088,0.38 1.736,0.499 0.647,0.12 1.483,0.23 2.492,0.32 0.809,0.089 1.582,0.159 2.322,0.219 0.737,0.049 1.437,0.08 2.099,0.08 0.668,0.029 1.493,0.05 2.462,0.05 0.958,0.01 2.061,0.01 3.29,0.01 h 1.577 c 0.725,0 1.301,0.169 1.736,0.498 z m -107.985,-20.968 7.441,13.683 3.889,7.151 h 2.081 l 1.472,-20.834 z m 20.019,23.468 c -0.065,0.659 -0.191,1.198 -0.388,1.607 -0.207,0.419 -0.488,0.699 -0.862,0.848 -0.337,0.179 -0.871,0.319 -1.617,0.409 -0.736,0.09 -1.693,0.13 -2.859,0.13 h -1.261 c -2.272,0 -3.827,-0.18 -4.668,-0.539 -0.309,-0.112 -0.618,-0.295 -0.923,-0.557 -0.102,-0.088 -0.204,-0.185 -0.306,-0.291 -0.412,-0.409 -0.801,-0.948 -1.177,-1.607 l -18.769,-33.167 c -0.27,-0.478 -0.519,-1.007 -0.738,-1.575 -0.229,-0.579 -0.42,-1.208 -0.582,-1.896 l -0.4,-1.704 -0.331,-1.409 h 2.647 c 0.758,0 1.399,0.05 1.914,0.14 0.529,0.1 0.921,0.249 1.191,0.458 0.539,0.419 1.179,1.257 1.915,2.515 l 4.121,7.604 h 18.413 l 0.546,-7.604 c 0.054,-0.848 0.174,-1.496 0.36,-1.956 0.189,-0.449 0.526,-0.758 1.023,-0.917 0.497,-0.171 1.246,-0.25 2.237,-0.24 h 2.648 l 0.732,3.113 c 0.148,0.628 0.246,1.227 0.287,1.806 0.039,0.568 0.023,1.128 -0.039,1.665 z m -41.324,-10.915 c -0.198,-1.337 -0.518,-2.964 -0.98,-4.889 l -1.211,-5.149 c -0.443,-1.926 -0.888,-3.552 -1.318,-4.889 -0.44,-1.337 -0.944,-2.455 -1.502,-3.353 -0.561,-0.908 -1.244,-1.666 -2.054,-2.295 -0.793,-0.608 -1.659,-1.067 -2.586,-1.387 -0.597,-0.199 -1.263,-0.357 -2,-0.472 -0.404,-0.062 -0.83,-0.111 -1.276,-0.146 -1.256,-0.109 -2.802,-0.159 -4.607,-0.15 h -5.928 l 7.178,30.533 h 5.926 c 1.809,0.009 3.334,-0.04 4.538,-0.15 1.214,-0.11 2.205,-0.32 2.981,-0.639 0.776,-0.318 1.42,-0.798 1.924,-1.427 0.52,-0.608 0.847,-1.356 0.983,-2.254 0.139,-0.889 0.117,-2.006 -0.068,-3.333 m 7.022,4.789 c -0.055,0.541 -0.138,1.056 -0.248,1.541 -0.408,1.789 -1.195,3.199 -2.359,4.226 -0.963,0.869 -2.054,1.547 -3.283,2.035 -1.232,0.49 -2.662,0.839 -4.298,1.038 -1.646,0.19 -3.557,0.29 -5.756,0.28 h -10.657 c -0.724,0 -1.312,-0.17 -1.767,-0.499 -0.448,-0.339 -0.757,-0.848 -0.918,-1.536 l -9.57,-40.71 h 12.865 c 2.193,-0.01 4.151,0.09 5.887,0.28 0.488,0.056 0.965,0.124 1.431,0.204 1.188,0.203 2.305,0.482 3.353,0.832 1.46,0.489 2.87,1.168 4.242,2.036 2.094,1.308 3.87,3.232 5.317,5.767 1.449,2.545 2.639,5.767 3.548,9.679 l 1.21,5.149 c 0.325,1.366 0.576,2.65 0.755,3.849 0.332,2.232 0.412,4.174 0.248,5.829 m -60.523,93.154 -1.72,-5.724 c -0.495,-1.537 -1.397,-2.18 -2.993,-2.609 l -10.615,-2.76 -15.569,-4.049 5.751,18.159 h 22.772 c 2.261,0.064 3.063,-0.832 2.374,-3.017 m 8.768,-23.709 c 14.114,1.774 17.407,7.242 19.924,17.099 0.709,2.335 1.419,4.67 2.129,7.006 4.993,14.55 -0.492,19.717 -13.356,19.824 h -68.091 c -6.776,-22.288 -13.521,-44.607 -20.277,-66.909 l 0.009,-0.004 -0.245,-0.805 -0.857,-2.833 h 30.685 l 0.472,1.561 0.247,0.811 h 0.009 l 6.824,22.537 h 10.214 l 8.217,-17.372 2.743,-5.799 0.003,0.003 0.219,-0.469 0.593,-1.272 h 33.985 c -4.48,8.875 -8.964,17.748 -13.447,26.622 m 377.662,23.709 -1.72,-5.724 c -0.494,-1.537 -1.397,-2.18 -2.993,-2.609 l -10.615,-2.76 -15.569,-4.049 5.752,18.159 h 22.772 c 2.26,0.064 3.062,-0.832 2.373,-3.017 M 186.311,0 h -68.09 c -6.776,-22.288 -13.522,-44.607 -20.277,-66.909 l 0.008,-0.004 -0.244,-0.805 -0.858,-2.833 h 30.686 l 0.472,1.561 0.247,0.811 h 0.008 l 6.824,22.537 h 10.215 l 8.216,-17.372 2.743,-5.799 0.003,0.003 0.22,-0.469 0.592,-1.272 h 33.985 c -4.48,8.875 -8.963,17.748 -13.447,26.622 14.114,1.774 17.407,7.242 19.925,17.099 0.708,2.335 1.418,4.67 2.128,7.006 C 204.66,-5.274 199.175,-0.107 186.311,0 M -81.693,0 h -87.65 l -0.473,-1.562 -0.247,-0.808 h -0.009 l -19.545,-64.539 -0.244,-0.809 -0.858,-2.833 h 87.655 l 0.473,1.561 0.245,0.811 h 0.009 l 3.389,11.191 0.245,0.811 0.859,2.83 h -56.761 l 2.79,9.217 h 45.077 l 0.472,1.563 0.245,0.807 3.541,11.697 0.245,0.809 0.858,2.833 h -45.073 l 2.791,9.218 h 56.751 l 0.473,1.561 0.245,0.808 h 0.008 l 3.39,11.194 -0.007,0.002 0.244,0.806 z M 61.432,-53.347 H 42.409 l -0.002,-0.005 h -7.204 l 10.947,36.144 h 13.879 l 10e-4,0.005 H 72.379 Z M 99.263,-2.145 C 95.806,-0.421 90.895,0.039 86.324,0 H 58.196 L 58.195,-0.004 H 38.82 C 27.27,0.186 19.801,-4.071 16.342,-14.579 L 7.091,-44.76 c -2.295,-7.875 -7.349,-19.374 1.228,-23.649 3.456,-1.725 8.367,-2.184 12.938,-2.146 h 23.5 l 0.001,0.004 h 24.003 c 11.551,-0.19 19.02,4.067 22.479,14.575 l 9.25,30.182 c 2.295,7.874 7.349,19.373 -1.227,23.649 m 160.925,-51.202 h -26.057 l 10.945,36.144 h 26.059 z m 41.857,47.231 c -2.129,5.06 -9.947,6.177 -16.964,6.116 h -65.686 l -0.475,-1.562 -0.246,-0.808 h -0.007 l -19.547,-64.539 0.008,-0.004 -0.242,-0.805 -0.863,-2.833 h 69.495 c 11.55,-0.19 19.019,4.067 22.479,14.575 l 9.25,30.182 c 3.496,10.265 4.503,15.627 2.798,19.678 M 12.933,64.485 h 0.063 v 0.005 h 10e-4 c 3.53,-0.009 6.644,-1.191 8.885,-3.098 2.278,-1.933 3.657,-4.623 3.656,-7.602 0,-3.417 -1.787,-8.228 -4.631,-11.924 -2.197,-2.852 -4.975,-4.986 -7.91,-5.1 L 12.942,36.764 H 12.87 c -0.094,-0.008 -0.09,-0.01 -0.106,-0.01 h -0.14 C 9.847,36.813 7.247,38.784 5.17,41.468 2.425,45.014 0.668,49.711 0.493,53.15 v 0.03 c -0.014,0.173 -0.026,0.343 -0.031,0.417 -0.003,0.08 -0.007,0.2 -0.007,0.381 0,5.574 5.507,10.507 12.478,10.507 M -8.527,18.398 h 44.038 c 32.924,45.86 122.757,75.986 171.786,96.89 l -22.255,-6.656 -1.39,-0.416 L 120.833,89.298 108.183,85.489 38.262,64.263 24.419,76.835 12.997,76.852 2.14,76.869 -12.133,64.07 l -100.652,30.877 -45.438,13.685 -21.928,6.605 C -129.349,93.367 -35.74,56.629 -8.527,18.398"
         fill="#e5ce8a"
         fill-rule="evenodd"
         id="path7" />
    </g>
  </g>
</svg>
