<svg width="165" height="165" viewBox="0 0 165 165" fill="none" xmlns="http://www.w3.org/2000/svg">
<path d="M33.9834 16.3693C46.1223 7.3745 60.4694 1.93704 75.4224 0.585938V25.3295C65.7566 26.5826 56.5254 30.2833 48.6291 36.1344C38.7418 43.4608 31.4707 53.7709 27.8885 65.5438C24.3062 77.3168 24.6024 89.9293 28.7333 101.521C32.8642 113.113 40.6111 123.07 50.8315 129.925C61.0518 136.779 73.2043 140.167 85.4967 139.589C97.789 139.012 109.57 134.499 119.103 126.717C128.635 118.934 135.414 108.294 138.44 96.3661C140.551 88.0459 140.757 79.4063 139.104 71.0772L159.882 54.373L159.868 54.2384C165.477 69.6671 166.334 86.4524 162.285 102.415C157.962 119.455 148.278 134.655 134.66 145.772C121.042 156.89 104.212 163.337 86.6513 164.162C69.0909 164.987 51.7301 160.147 37.1296 150.355C22.5292 140.564 11.4621 126.339 5.56083 109.779C-0.340466 93.2192 -0.763563 75.2013 4.35394 58.3828C9.47145 41.5642 19.8586 26.8356 33.9834 16.3693Z" fill="#e5ce8a"/>
<path d="M144.215 27.916L144.302 28.1341L130.417 50.1873C125.368 42.7045 118.601 36.4763 110.682 32.0678V82.2539C110.682 97.6515 98.2 110.134 82.8024 110.134C67.4047 110.134 54.9225 97.6515 54.9225 82.2539C54.9225 66.8562 67.4047 54.374 82.8024 54.374C88.573 54.374 93.9342 56.1272 98.3823 59.1301V1.73242C116.483 5.21396 132.466 14.6473 144.215 27.916Z" fill="#e5ce8a"/>
</svg>