<?xml version="1.0" encoding="UTF-8" standalone="no"?>
<svg
   class="sc-1rbjv9j-0 bPIhoL sc-1nzusd-0 gEgjAR"
   width="800px"
   height="800px"
   viewBox="0 0 30.9772 30.977301"
   version="1.1"
   id="svg346"
   sodipodi:docname="918f9cf0-bcb8-4eae-b733-bbbd0ef32bc4.svg"
   xmlns:inkscape="http://www.inkscape.org/namespaces/inkscape"
   xmlns:sodipodi="http://sodipodi.sourceforge.net/DTD/sodipodi-0.dtd"
   xmlns="http://www.w3.org/2000/svg"
   xmlns:svg="http://www.w3.org/2000/svg">
  <defs
     id="defs350" />
  <sodipodi:namedview
     id="namedview348"
     pagecolor="#ffffff"
     bordercolor="#000000"
     borderopacity="0.25"
     inkscape:showpageshadow="2"
     inkscape:pageopacity="0.0"
     inkscape:pagecheckerboard="0"
     inkscape:deskcolor="#d1d1d1"
     showgrid="false"
     inkscape:zoom="5"
     inkscape:cx="69.4"
     inkscape:cy="39.2"
     inkscape:window-width="1920"
     inkscape:window-height="1009"
     inkscape:window-x="-8"
     inkscape:window-y="-8"
     inkscape:window-maximized="1"
     inkscape:current-layer="svg346" />
  <path
     fill-rule="evenodd"
     clip-rule="evenodd"
     d="m 13.1211,26.6721 c 0.0776,0.3749 0.1164,0.5623 -9e-4,0.694 -0.1173,0.1317 -0.3129,0.1143 -0.704,0.0794 C 10.2265,27.2506 9.0019,26.8491 8.04409,26.4524 6.45082,25.7925 5.18498,24.5266 4.52502,22.9333 4.12826,21.9755 3.72676,20.7508 3.53175,18.561 3.49692,18.1699 3.4795,17.9744 3.61117,17.8571 c 0.13166,-0.1173 0.31913,-0.0785 0.69405,-9e-4 4.42002,0.9148 7.90108,4.3958 8.81588,8.8159 z m 4.2324,0.8541 C 17.0493,27.5404 16.8972,27.5475 16.7927,27.4609 16.6882,27.3743 16.6659,27.2162 16.6211,26.9 15.7032,20.4091 10.5682,15.274 4.07731,14.3561 3.76105,14.3114 3.60293,14.289 3.51635,14.1845 3.42978,14.08 3.43688,13.9279 3.45107,13.6238 3.5105,12.3498 3.63098,11.3488 3.78583,10.5325 3.83678,10.2639 3.86225,10.1296 3.96846,10.0482 4.07466,9.96677 4.21224,9.97711 4.48738,9.9978 13.2904,10.6596 20.3177,17.6869 20.9795,26.49 c 0.0206,0.2751 0.031,0.4127 -0.0505,0.5189 -0.0814,0.1062 -0.2157,0.1317 -0.4843,0.1826 -0.8163,0.1548 -1.8173,0.2753 -3.0912,0.3347 z m 7.8912,-2.6943 c -0.3462,0.3789 -0.5194,0.5683 -0.7302,0.5053 C 24.3037,25.2742 24.2586,24.994 24.1683,24.4337 22.7123,15.3993 15.5782,8.2651 6.54384,6.80903 5.98352,6.71872 5.70336,6.67357 5.64038,6.46277 5.57739,6.25196 5.76681,6.07883 6.14566,5.73257 6.69829,5.22746 7.33914,4.81685 8.04409,4.52485 9.37843,3.97214 11.2306,3.41034 15.4886,3.41034 c 4.2581,0 6.1106,0.56182 7.4449,1.11451 1.5933,0.65995 2.8591,1.9258 3.5191,3.51906 0.5526,1.33421 1.1143,3.18649 1.1143,7.44469 0,4.2583 -0.5617,6.1105 -1.1143,7.4447 -0.292,0.7051 -0.7027,1.346 -1.2079,1.8986 z M 0,15.4886 C 0,10.8699 0.61972,8.5605 1.37428,6.73883 2.38036,4.30994 4.31011,2.38019 6.73901,1.37411 8.56068,0.619545 10.8699,0 15.4886,0 c 4.6188,0 6.9283,0.619545 8.75,1.37411 2.4289,1.00608 4.3586,2.93583 5.3647,5.36472 0.7546,1.82167 1.3739,4.13107 1.3739,8.74977 0,4.6188 -0.6193,6.9282 -1.3739,8.7498 -1.0061,2.4289 -2.9358,4.3587 -5.3647,5.3648 -1.8217,0.7545 -4.1312,1.3741 -8.75,1.3741 -4.6187,0 -6.92792,-0.6196 -8.74959,-1.3741 C 4.31011,28.5971 2.38036,26.6673 1.37428,24.2384 0.61972,22.4168 0,20.1074 0,15.4886 Z"
     fill="white"
     id="path305"
     style="fill:#e5ce8a;fill-opacity:1" />
</svg>
